<svg version="1.1" id="Layer_1" xmlns="http://www.w3.org/2000/svg" xmlns:xlink="http://www.w3.org/1999/xlink" x="0px" y="0px"
	 width="100%" viewBox="0 0 2752 1536" enable-background="new 0 0 2752 1536" xml:space="preserve">
<path fill="#FDFDFD" opacity="1.000000" stroke="none" 
	d="
M1800.000000,1538.000000 
	C1200.069702,1538.000000 601.139465,1538.000000 2.104593,1538.000000 
	C2.104593,1026.129395 2.104593,514.258667 2.104593,2.193994 
	C919.097229,2.193994 1836.194458,2.193994 2753.645996,2.193994 
	C2753.645996,513.999817 2753.645996,1025.999878 2753.645996,1538.000000 
	C2436.258057,1538.000000 2118.629150,1538.000000 1800.000000,1538.000000 
M1681.508789,961.731262 
	C1682.639526,963.430603 1683.770264,965.129883 1685.095093,966.880493 
	C1685.095093,966.880493 1685.153442,967.072571 1686.260010,968.086426 
	C1690.525635,968.208191 1694.790771,968.405334 1699.057007,968.430664 
	C1703.372192,968.456238 1707.688477,968.311829 1713.482666,968.217957 
	C1706.481812,957.415894 1700.607300,948.351562 1694.411255,939.717957 
	C1694.411255,939.717957 1694.828613,939.379395 1694.449829,938.015564 
	C1690.789795,931.964355 1687.129639,925.913147 1684.126221,920.947632 
	C1690.115234,915.311707 1695.057861,910.660400 1700.000000,906.000000 
	C1700.000000,906.000000 1700.007812,905.999268 1701.163086,905.271729 
	C1710.543701,892.231750 1712.054932,877.424866 1709.235718,862.363831 
	C1705.642334,843.166199 1694.335449,829.876099 1675.105469,824.633362 
	C1669.098145,822.995605 1662.615723,822.658264 1656.336426,822.547791 
	C1640.368408,822.266785 1624.392334,822.433594 1608.419434,822.468262 
	C1606.253174,822.472961 1604.087402,822.748169 1601.951782,822.896057 
	C1601.951782,871.810669 1601.951782,919.890137 1601.951782,967.774109 
	C1610.387207,967.774109 1618.145142,967.774109 1626.322510,967.774109 
	C1626.088501,962.703552 1625.890381,958.407715 1626.047485,952.267944 
	C1626.024902,943.489075 1626.002319,934.710266 1627.762817,925.293518 
	C1638.517944,925.508850 1649.272949,925.724182 1659.993774,925.997437 
	C1659.993774,925.997437 1660.055908,925.973206 1660.468018,927.287170 
	C1663.357544,931.781372 1666.246948,936.275513 1669.640625,939.978271 
	C1669.640625,939.978271 1669.079834,940.730835 1669.510620,942.044006 
	C1671.556030,945.131592 1673.601440,948.219177 1675.616211,951.751221 
	C1675.616211,951.751221 1675.997314,951.982178 1676.218506,953.281311 
	C1677.932251,955.740845 1679.645996,958.200439 1681.499268,960.408569 
	C1681.499268,960.408569 1681.233276,960.517639 1681.508789,961.731262 
M1041.508545,832.801636 
	C1039.670288,831.921387 1037.832153,831.041138 1035.220703,829.871521 
	C1035.220703,829.871521 1034.395142,829.857910 1033.846313,828.509277 
	C1029.216309,826.906128 1024.689209,824.469238 1019.933716,823.882141 
	C1011.394897,822.827942 1002.722168,822.652771 994.099487,822.530334 
	C980.221680,822.333191 966.338989,822.477417 952.151917,822.477417 
	C952.151917,845.576477 952.151917,867.776245 951.788757,891.792175 
	C951.921143,899.201721 952.053528,906.611328 951.830200,915.864075 
	C951.830200,933.230347 951.830200,950.596558 951.830200,967.995728 
	C960.664368,967.995728 968.175232,967.995728 975.907776,967.995728 
	C975.907776,954.381104 975.907776,941.198547 976.255371,927.244934 
	C976.255371,927.244934 976.141235,926.406982 977.919067,925.819336 
	C988.530884,925.749084 999.169678,926.134644 1009.748718,925.509827 
	C1029.269775,924.356873 1046.139771,918.203247 1054.978516,898.677612 
	C1054.978516,898.677612 1054.893555,898.689148 1055.874634,897.612854 
	C1056.984009,893.840515 1058.550293,890.135986 1059.122314,886.283875 
	C1061.389526,871.012024 1060.850952,856.173279 1050.391846,844.072693 
	C1050.576538,843.777405 1050.761108,843.482178 1050.485718,841.954895 
	C1047.678711,839.263184 1044.871582,836.571533 1042.017944,834.004272 
	C1042.017944,834.004272 1042.125610,833.926331 1041.508545,832.801636 
M1830.393066,944.827820 
	C1824.768921,944.796570 1819.144531,944.795898 1813.520874,944.728271 
	C1795.675903,944.513672 1777.831421,944.274048 1759.998779,942.163208 
	C1759.900513,930.363159 1759.802246,918.563110 1761.223999,906.025269 
	C1781.388916,906.025269 1801.553833,906.025269 1821.530273,906.025269 
	C1821.530273,897.390320 1821.530273,889.949951 1821.530273,881.998352 
	C1803.864258,881.998352 1786.921021,882.100403 1769.981079,881.913574 
	C1766.529785,881.875549 1763.090454,880.750854 1759.928711,878.254211 
	C1759.858032,867.786865 1759.787354,857.319458 1761.558472,846.273193 
	C1784.453125,846.273193 1807.347778,846.273193 1829.809570,846.273193 
	C1829.809570,837.717468 1829.809570,830.251099 1829.809570,822.907104 
	C1797.887817,822.907104 1766.703369,822.907104 1735.084961,822.907104 
	C1735.084961,871.575256 1735.084961,919.673340 1735.084961,967.871826 
	C1768.459595,967.871826 1801.235840,967.871826 1834.140991,967.871826 
	C1834.140991,961.544800 1834.296509,955.888367 1834.044312,950.250122 
	C1833.970581,948.603394 1832.735107,947.008667 1830.393066,944.827820 
M1417.781250,732.544250 
	C1429.871582,724.395447 1442.721069,717.156311 1453.855225,707.862061 
	C1467.050415,696.847229 1479.297363,684.485901 1487.145264,667.097778 
	C1495.618042,651.315002 1500.577637,634.496277 1501.100098,616.584045 
	C1501.526855,601.947937 1501.264038,587.292297 1501.358643,572.645630 
	C1501.379150,569.465820 1501.620239,566.287537 1501.832275,561.459106 
	C1510.227661,566.605896 1517.346436,570.970032 1525.009766,575.668030 
	C1527.289551,570.916199 1529.203491,567.434082 1530.669067,563.772461 
	C1534.293091,554.718201 1534.084229,554.058960 1525.798828,548.308533 
	C1513.500244,539.772766 1501.337769,531.009766 1488.682007,523.034180 
	C1483.109253,519.522339 1481.139648,515.561096 1481.465088,509.189484 
	C1481.956665,499.560211 1481.673340,489.888000 1481.596069,480.235016 
	C1481.570435,477.042114 1481.163940,473.852295 1480.891357,470.108551 
	C1469.352417,470.192810 1458.869507,469.593872 1447.715820,470.559204 
	C1447.715820,477.047760 1447.767334,482.350922 1447.693970,487.652374 
	C1447.657837,490.260956 1448.013062,493.235229 1443.582764,492.467529 
	C1440.876953,490.098511 1438.367676,487.446259 1435.432007,485.408264 
	C1420.806763,475.254700 1406.079224,465.247833 1391.362793,455.226074 
	C1388.366211,453.185486 1385.210449,451.377960 1382.222046,449.326172 
	C1379.341431,447.348328 1377.328979,448.415894 1374.277466,451.489624 
	C1326.136353,484.798218 1277.998047,518.110718 1229.840454,551.395447 
	C1228.458984,552.350342 1226.875610,553.013306 1225.531128,553.734680 
	C1228.533325,561.792114 1230.900269,568.144836 1233.739014,575.763855 
	C1242.280884,570.522888 1249.444946,566.127319 1258.261108,560.718140 
	C1258.261108,565.901794 1258.267090,569.091003 1258.260010,572.280151 
	C1258.234375,583.927979 1258.376953,595.579346 1258.142578,607.223022 
	C1257.542358,637.030579 1266.509644,663.572021 1285.194824,686.745667 
	C1298.457397,703.194153 1313.433960,717.694092 1333.271851,727.687500 
	C1343.986328,733.602905 1355.054199,738.969543 1365.319092,745.582886 
	C1376.341431,752.684265 1386.172852,752.148315 1397.351807,743.729248 
	C1401.617065,741.263977 1405.882202,738.798706 1411.329102,736.118958 
	C1413.020386,735.079163 1414.711548,734.039368 1417.781250,732.544250 
M1943.722900,962.242981 
	C1955.825195,958.958923 1964.399048,951.191406 1971.949585,939.960266 
	C1987.623047,914.807251 1988.404297,888.292847 1977.295532,861.650513 
	C1968.510620,840.581543 1951.963257,826.636902 1929.178223,824.197754 
	C1905.835693,821.698975 1882.147461,822.428040 1858.422119,821.738770 
	C1858.422119,871.488586 1858.422119,919.873657 1858.422119,968.175293 
	C1880.751831,968.175293 1902.390381,968.604309 1923.992188,967.902222 
	C1930.117188,967.703247 1936.134766,964.204773 1943.722900,962.242981 
M464.327423,824.511108 
	C464.241791,871.010071 464.139832,917.509094 464.156036,964.008057 
	C464.156464,965.288757 465.426178,966.569031 466.997101,968.239380 
	C466.997101,968.239380 467.944977,968.013123 469.590881,968.459534 
	C472.412567,968.319031 475.234253,968.178467 479.394806,968.385803 
	C481.199921,968.036011 483.005035,967.686157 484.218262,967.451050 
	C484.218262,918.975586 484.218262,871.260742 484.218262,823.544434 
	C477.644379,823.544434 471.736755,823.544434 464.327423,824.511108 
M1241.184814,906.051819 
	C1261.403198,906.051819 1281.621704,906.051819 1302.051514,906.051819 
	C1302.051514,897.414917 1302.051514,889.978943 1302.051514,881.715576 
	C1281.133667,881.715576 1260.949097,881.715576 1240.442627,881.715576 
	C1240.442627,869.642334 1240.442627,858.407166 1240.442627,846.151245 
	C1263.849365,846.151245 1286.986816,846.151245 1310.130127,846.151245 
	C1310.130127,837.698669 1310.130127,830.283386 1310.130127,823.096497 
	C1278.246948,823.096497 1247.135620,823.096497 1215.913208,823.096497 
	C1215.913208,871.877075 1215.913208,919.967651 1215.913208,968.107422 
	C1248.780518,968.107422 1281.013794,968.107422 1313.292725,968.107422 
	C1313.292725,960.215942 1313.292725,952.783508 1313.292725,944.501465 
	C1288.704956,944.501465 1264.830688,944.501465 1239.601196,944.501465 
	C1239.601196,931.723633 1239.601196,919.807983 1239.928589,907.349426 
	C1239.928589,907.349426 1239.658325,906.775940 1241.184814,906.051819 
M2452.052734,901.897217 
	C2452.052734,923.803528 2452.052734,945.709778 2452.052734,968.065796 
	C2460.197998,968.065796 2467.416260,968.065796 2475.539307,968.065796 
	C2475.357422,964.474609 2475.193604,961.241272 2475.478760,956.183716 
	C2475.496094,925.039490 2475.552246,893.895264 2475.511475,862.751099 
	C2475.495605,850.503845 2475.264404,838.256836 2475.302734,824.491211 
	C2468.499268,820.405457 2461.381592,823.196106 2454.451660,822.869629 
	C2437.940430,854.628723 2421.716064,885.836426 2404.765625,918.440491 
	C2387.221680,885.655640 2370.347900,854.123413 2353.813477,823.225159 
	C2346.293213,823.225159 2339.834717,823.225159 2333.274902,823.225159 
	C2333.274902,871.836792 2333.274902,919.665039 2333.274902,967.645752 
	C2341.139404,967.645752 2348.549561,967.645752 2355.747314,967.645752 
	C2355.747314,939.977844 2355.747314,913.036072 2356.101807,884.520264 
	C2356.195557,882.399719 2356.289307,880.279236 2356.383057,878.158691 
	C2356.945801,877.988342 2357.508545,877.817993 2358.071289,877.647705 
	C2371.515625,902.554443 2384.959961,927.461121 2398.097168,951.798645 
	C2402.833740,951.798645 2406.394775,951.798645 2410.074951,951.798645 
	C2423.064453,927.130310 2435.891113,902.765930 2448.737793,878.411865 
	C2449.039307,877.839539 2449.525146,877.344055 2450.002930,876.895935 
	C2450.165771,876.743103 2450.576660,876.795654 2450.858398,876.844604 
	C2451.159912,876.896790 2451.442627,877.055603 2452.395020,877.423035 
	C2452.395020,884.797607 2452.395020,892.427429 2452.052734,901.897217 
M331.981476,917.153015 
	C336.586639,925.630249 341.596375,933.918640 345.670502,942.643799 
	C348.999390,949.773071 353.517517,953.043213 362.235931,950.475769 
	C368.997101,937.543274 375.985260,923.960266 383.175079,910.484924 
	C390.419342,896.907410 397.123413,883.009705 404.976196,869.778320 
	C405.733215,870.008789 406.490234,870.239258 407.247253,870.469727 
	C407.247253,902.898499 407.247253,935.327271 407.247253,968.101868 
	C414.461517,968.101868 420.636322,968.101868 427.174988,968.101868 
	C427.174988,919.553650 427.174988,871.454224 427.174988,822.478088 
	C423.714111,822.478088 420.741699,822.794250 417.861450,822.413269 
	C411.622955,821.588074 408.345490,824.284851 405.749420,829.924500 
	C401.025085,840.187439 395.524567,850.101440 390.156525,860.057861 
	C379.275177,880.239990 368.266144,900.353210 356.353882,922.252014 
	C337.643463,888.235596 319.588226,855.410217 301.886078,823.226868 
	C295.540863,823.226868 290.023224,823.226868 284.268921,823.226868 
	C284.268921,871.852966 284.268921,919.709229 284.268921,967.840698 
	C291.083923,967.840698 297.535919,967.840698 304.448059,967.840698 
	C304.448059,935.277466 304.446869,903.309387 304.479034,871.341370 
	C304.479218,871.167786 304.930237,870.952881 305.203918,870.833069 
	C305.479248,870.712524 305.796082,870.686768 306.751068,870.471375 
	C314.886383,885.475037 323.111115,900.643677 331.981476,917.153015 
M2237.447998,970.981201 
	C2272.894043,970.922607 2296.819092,953.043274 2306.406494,918.983765 
	C2311.829102,899.719055 2310.596436,880.633850 2302.422363,862.340027 
	C2290.596924,835.874268 2270.306396,821.012329 2240.956543,820.655273 
	C2211.334717,820.294983 2190.050293,834.253662 2177.699951,861.089783 
	C2174.403076,868.253723 2172.153320,876.133911 2170.811523,883.924438 
	C2163.240479,927.885132 2192.754395,969.129700 2237.447998,970.981201 
M1186.668945,956.208557 
	C1179.400635,944.367126 1172.132324,932.525696 1164.588135,920.234802 
	C1167.093018,918.461670 1168.884521,917.094360 1170.771362,915.874634 
	C1179.840454,910.012512 1186.345459,902.049866 1188.296143,891.399109 
	C1189.776733,883.316101 1190.787842,874.907288 1190.291016,866.747864 
	C1188.909790,844.058411 1172.822266,826.611023 1150.326294,823.675293 
	C1139.173340,822.219788 1127.762451,822.618164 1116.463989,822.435730 
	C1105.226562,822.254211 1093.983887,822.395996 1082.277466,822.395996 
	C1082.277466,871.448303 1082.277466,919.529236 1082.277466,967.737793 
	C1090.503052,967.737793 1098.288818,967.737793 1106.893066,967.737793 
	C1106.893066,953.594177 1106.893066,940.058899 1106.893066,925.519287 
	C1116.269165,925.519287 1124.847656,925.787048 1133.398438,925.416382 
	C1138.341309,925.202148 1141.251709,926.865479 1143.711792,931.203796 
	C1149.780396,941.905090 1156.285278,952.363892 1162.821289,962.790833 
	C1164.154297,964.917664 1166.308228,967.936707 1168.226440,968.046326 
	C1176.518921,968.520142 1184.946411,969.431763 1193.543579,967.507202 
	C1191.245728,963.670959 1189.369141,960.538025 1186.668945,956.208557 
M1566.981323,923.751282 
	C1553.331909,889.916504 1539.682373,856.081665 1526.157349,822.555176 
	C1517.156616,822.555176 1509.209229,822.555176 1500.446411,822.555176 
	C1481.194580,870.810974 1461.950562,919.047363 1442.378174,968.106995 
	C1451.686890,968.106995 1459.861450,968.106995 1468.418213,968.106995 
	C1472.792847,957.372314 1477.131104,946.726685 1481.383545,936.291626 
	C1503.093506,936.291626 1523.973267,936.291626 1544.854492,936.291626 
	C1549.454834,947.305969 1553.896240,957.939880 1558.109863,968.028320 
	C1567.443481,968.028320 1575.648193,968.028320 1585.038696,968.028320 
	C1579.028564,953.170776 1573.354370,939.143982 1566.981323,923.751282 
M1376.982178,822.376526 
	C1363.796509,822.376526 1350.610840,822.376526 1337.235107,822.376526 
	C1337.235107,871.627808 1337.235107,919.652710 1337.235107,967.936157 
	C1345.726562,967.936157 1353.564331,967.936157 1361.878784,967.936157 
	C1361.878784,960.471558 1361.818726,953.508850 1361.895752,946.547668 
	C1361.971313,939.711243 1362.186279,932.876404 1362.349976,925.600525 
	C1374.221802,925.600525 1384.859253,925.850708 1395.480591,925.542542 
	C1411.878906,925.066833 1426.258179,919.689148 1436.157715,905.944092 
	C1445.836914,892.505066 1447.985107,877.175659 1444.781738,861.234192 
	C1440.570435,840.275574 1426.003418,826.538147 1404.829346,823.657715 
	C1396.309570,822.498657 1387.596558,822.761414 1376.982178,822.376526 
M658.184082,960.393677 
	C658.378723,962.932617 658.573364,965.471619 658.774109,968.090332 
	C665.921631,968.090332 672.383911,968.090332 679.689697,968.090332 
	C679.689697,953.167236 679.689697,938.960938 679.689697,923.765808 
	C690.106750,923.765808 699.722656,924.192932 709.278076,923.616882 
	C715.737000,923.227478 719.715088,925.159790 723.006531,930.869141 
	C729.320190,941.820740 736.284973,952.406433 743.248901,962.966309 
	C744.748657,965.240540 747.225464,968.087952 749.536438,968.373962 
	C755.657532,969.131226 761.934204,968.630737 769.482666,968.630737 
	C758.585388,951.519287 748.486267,935.661072 738.239380,919.570923 
	C741.191406,917.609680 743.321838,916.097534 745.542969,914.733215 
	C771.592041,898.731689 774.186096,852.839844 748.278198,833.370483 
	C738.260559,825.842407 726.839600,822.877380 714.577393,822.769104 
	C698.585205,822.627808 682.590759,822.727356 666.597412,822.773071 
	C664.024292,822.780457 661.451904,823.047180 658.164429,823.234863 
	C658.164429,868.688599 658.164429,913.603943 658.184082,960.393677 
M919.849243,861.214539 
	C918.386536,858.600220 917.057678,855.899902 915.441101,853.384460 
	C888.327881,811.193970 828.339233,809.509155 799.814941,850.350403 
	C785.642822,870.642212 781.936768,893.438721 788.363037,917.066833 
	C796.198792,945.877258 818.185425,969.928345 855.658447,970.985596 
	C887.467041,971.882996 914.623230,951.914368 924.090088,920.151123 
	C929.906128,900.637268 928.805298,881.340698 919.849243,861.214539 
M2066.343994,913.743469 
	C2063.191406,901.896057 2063.048340,890.009033 2066.304688,878.191162 
	C2074.224121,849.450806 2105.910645,835.549622 2130.341309,850.276733 
	C2135.336182,853.287720 2139.510986,857.659241 2144.513672,861.773499 
	C2149.467773,856.135498 2154.416016,850.504150 2159.430664,844.797302 
	C2158.333252,843.263489 2157.648438,842.124939 2156.791748,841.135132 
	C2132.231934,812.760254 2087.664551,816.953735 2066.026367,835.203613 
	C2047.341187,850.962708 2039.484619,871.386841 2038.569336,895.013550 
	C2037.016357,935.102112 2065.335449,977.822449 2121.319336,969.971558 
	C2137.457520,967.708374 2150.410400,959.769836 2159.856445,945.753784 
	C2154.494141,939.966980 2149.585938,934.670227 2144.096191,928.745911 
	C2141.905273,931.118652 2140.191895,933.077209 2138.370117,934.929199 
	C2131.549805,941.862366 2123.270508,945.621460 2113.570801,946.437500 
	C2091.686523,948.278931 2076.223389,938.029480 2066.343994,913.743469 
M628.525024,838.418640 
	C605.019104,814.575684 558.604309,812.553040 531.116394,843.746887 
	C520.649231,855.625183 515.160217,869.691650 512.688293,885.080444 
	C507.002594,920.475342 526.693115,955.196045 558.771667,966.990906 
	C584.991516,976.631531 618.814697,969.110474 634.183960,945.682678 
	C629.940186,941.872314 625.614990,937.988892 621.254211,934.073425 
	C618.926514,936.167053 617.177917,937.697876 615.474915,939.277832 
	C593.395691,959.762756 557.816589,953.984680 542.140930,928.107422 
	C530.386658,908.703491 529.628906,888.216858 539.179565,867.976624 
	C550.473145,844.042847 578.818054,833.807983 602.639954,844.683777 
	C609.426941,847.782410 615.269287,852.950073 622.045166,857.505249 
	C625.648071,853.521362 629.798157,848.932495 635.209229,842.949219 
	C632.934937,841.512817 631.238220,840.441223 628.525024,838.418640 
M2018.167603,969.241455 
	C2026.559326,964.206726 2028.202637,956.561768 2026.217163,947.725403 
	C2024.493164,940.051697 2018.779419,935.299011 2011.612305,935.139343 
	C2004.756714,934.986511 1998.307739,939.993103 1996.264282,947.054565 
	C1992.213989,961.051208 2001.497070,971.334229 2018.167603,969.241455 
z"/>
<path fill="#505050" opacity="1.000000" stroke="none" 
	d="
M331.658691,916.482666 
	C323.111115,900.643677 314.886383,885.475037 306.751068,870.471375 
	C305.796082,870.686768 305.479248,870.712524 305.203918,870.833069 
	C304.930237,870.952881 304.479218,871.167786 304.479034,871.341370 
	C304.446869,903.309387 304.448059,935.277466 304.448059,967.840698 
	C297.535919,967.840698 291.083923,967.840698 284.268921,967.840698 
	C284.268921,919.709229 284.268921,871.852966 284.268921,823.226868 
	C290.023224,823.226868 295.540863,823.226868 301.886078,823.226868 
	C319.588226,855.410217 337.643463,888.235596 356.353882,922.252014 
	C368.266144,900.353210 379.275177,880.239990 390.156525,860.057861 
	C395.524567,850.101440 401.025085,840.187439 405.749420,829.924500 
	C408.345490,824.284851 411.622955,821.588074 417.861450,822.413269 
	C420.741699,822.794250 423.714111,822.478088 427.174988,822.478088 
	C427.174988,871.454224 427.174988,919.553650 427.174988,968.101868 
	C420.636322,968.101868 414.461517,968.101868 407.247253,968.101868 
	C407.247253,935.327271 407.247253,902.898499 407.247253,870.469727 
	C406.490234,870.239258 405.733215,870.008789 404.976196,869.778320 
	C397.123413,883.009705 390.419342,896.907410 383.175079,910.484924 
	C375.985260,923.960266 368.997101,937.543274 362.235931,950.475769 
	C353.517517,953.043213 348.999390,949.773071 345.670502,942.643799 
	C341.596375,933.918640 336.586639,925.630249 331.658691,916.482666 
z"/>
<path fill="#203652" opacity="1.000000" stroke="none" 
	d="
M2236.567871,970.922974 
	C2192.754395,969.129700 2163.240479,927.885132 2170.811523,883.924438 
	C2172.153320,876.133911 2174.403076,868.253723 2177.699951,861.089783 
	C2190.050293,834.253662 2211.334717,820.294983 2240.956543,820.655273 
	C2270.306396,821.012329 2290.596924,835.874268 2302.422363,862.340027 
	C2310.596436,880.633850 2311.829102,899.719055 2306.406494,918.983765 
	C2296.819092,953.043274 2272.894043,970.922607 2236.567871,970.922974 
M2206.882324,860.016541 
	C2192.111572,876.273071 2190.527100,909.098816 2205.008057,929.090088 
	C2219.265625,948.773132 2246.946533,952.871704 2266.011719,937.800110 
	C2281.826904,925.297668 2288.581299,901.280212 2282.406494,879.638611 
	C2278.487549,865.903015 2271.154297,854.779846 2257.968750,848.388977 
	C2241.085938,840.205994 2223.481445,844.011902 2206.882324,860.016541 
z"/>
<path fill="#203652" opacity="1.000000" stroke="none" 
	d="
M1187.080811,956.806885 
	C1189.369141,960.538025 1191.245728,963.670959 1193.543579,967.507202 
	C1184.946411,969.431763 1176.518921,968.520142 1168.226440,968.046326 
	C1166.308228,967.936707 1164.154297,964.917664 1162.821289,962.790833 
	C1156.285278,952.363892 1149.780396,941.905090 1143.711792,931.203796 
	C1141.251709,926.865479 1138.341309,925.202148 1133.398438,925.416382 
	C1124.847656,925.787048 1116.269165,925.519287 1106.893066,925.519287 
	C1106.893066,940.058899 1106.893066,953.594177 1106.893066,967.737793 
	C1098.288818,967.737793 1090.503052,967.737793 1082.277466,967.737793 
	C1082.277466,919.529236 1082.277466,871.448303 1082.277466,822.395996 
	C1093.983887,822.395996 1105.226562,822.254211 1116.463989,822.435730 
	C1127.762451,822.618164 1139.173340,822.219788 1150.326294,823.675293 
	C1172.822266,826.611023 1188.909790,844.058411 1190.291016,866.747864 
	C1190.787842,874.907288 1189.776733,883.316101 1188.296143,891.399109 
	C1186.345459,902.049866 1179.840454,910.012512 1170.771362,915.874634 
	C1168.884521,917.094360 1167.093018,918.461670 1164.588135,920.234802 
	C1172.132324,932.525696 1179.400635,944.367126 1187.080811,956.806885 
M1106.752441,876.972229 
	C1106.818726,885.128113 1106.885010,893.283997 1106.955444,901.940491 
	C1119.199829,901.940491 1130.154175,902.413086 1141.050903,901.822327 
	C1155.072144,901.062195 1164.729614,890.648010 1165.581055,876.480286 
	C1166.510864,861.008728 1158.825806,849.567810 1144.760986,847.091919 
	C1132.426270,844.920532 1119.915649,845.837585 1106.757324,846.269165 
	C1106.757324,856.519226 1106.757324,865.753662 1106.752441,876.972229 
z"/>
<path fill="#203652" opacity="1.000000" stroke="none" 
	d="
M2475.131592,826.009705 
	C2475.264404,838.256836 2475.495605,850.503845 2475.511475,862.751099 
	C2475.552246,893.895264 2475.496094,925.039490 2474.599121,957.343567 
	C2472.583740,960.783142 2471.447998,963.062866 2469.974609,966.020630 
	C2465.689697,965.802856 2461.241699,965.576843 2456.000000,965.310486 
	C2456.000000,952.603943 2456.463135,940.961487 2455.857910,929.374939 
	C2455.345703,919.568848 2453.596680,909.827271 2452.395020,900.057190 
	C2452.395020,892.427429 2452.395020,884.797607 2452.395020,877.423035 
	C2451.442627,877.055603 2451.159912,876.896790 2450.858398,876.844604 
	C2450.576660,876.795654 2450.165771,876.743103 2450.002930,876.895935 
	C2449.525146,877.344055 2449.039307,877.839539 2448.737793,878.411865 
	C2435.891113,902.765930 2423.064453,927.130310 2410.074951,951.798645 
	C2406.394775,951.798645 2402.833740,951.798645 2398.097168,951.798645 
	C2384.959961,927.461121 2371.515625,902.554443 2358.071289,877.647705 
	C2357.508545,877.817993 2356.945801,877.988342 2356.383057,878.158691 
	C2356.289307,880.279236 2356.195557,882.399719 2355.381592,885.925598 
	C2354.440918,890.629761 2354.040039,893.927979 2354.029785,897.227478 
	C2353.969238,916.544006 2354.025146,935.860962 2353.975098,955.177612 
	C2353.966797,958.402039 2353.631592,961.625671 2353.420654,965.317749 
	C2347.483154,965.317749 2342.373047,965.317749 2336.638672,965.317749 
	C2336.638672,918.888916 2336.638672,873.132996 2336.638672,827.509216 
	C2349.817627,824.498474 2350.665039,824.504822 2356.291748,834.728455 
	C2367.026611,854.232727 2377.311523,873.984375 2387.825684,893.610535 
	C2391.747070,900.930420 2395.659668,908.261292 2399.855469,915.423584 
	C2401.020264,917.411438 2403.185547,918.813049 2405.384766,920.966187 
	C2407.146729,918.541077 2408.255859,917.342834 2408.994385,915.948303 
	C2421.909668,891.567139 2434.819336,867.182983 2447.646240,842.755371 
	C2458.237305,822.585388 2452.046875,826.477295 2475.131592,826.009705 
z"/>
<path fill="#203652" opacity="1.000000" stroke="none" 
	d="
M1567.330811,924.434204 
	C1573.354370,939.143982 1579.028564,953.170776 1585.038696,968.028320 
	C1575.648193,968.028320 1567.443481,968.028320 1558.109863,968.028320 
	C1553.896240,957.939880 1549.454834,947.305969 1544.854492,936.291626 
	C1523.973267,936.291626 1503.093506,936.291626 1481.383545,936.291626 
	C1477.131104,946.726685 1472.792847,957.372314 1468.418213,968.106995 
	C1459.861450,968.106995 1451.686890,968.106995 1442.378174,968.106995 
	C1461.950562,919.047363 1481.194580,870.810974 1500.446411,822.555176 
	C1509.209229,822.555176 1517.156616,822.555176 1526.157349,822.555176 
	C1539.682373,856.081665 1553.331909,889.916504 1567.330811,924.434204 
M1535.857666,910.120667 
	C1528.474365,891.396362 1521.091064,872.672058 1513.131592,852.486816 
	C1504.936768,873.056702 1497.426636,892.133118 1490.568359,911.825989 
	C1506.467041,911.825989 1520.987061,911.825989 1535.857666,910.120667 
z"/>
<path fill="#6D8292" opacity="1.000000" stroke="none" 
	d="
M1333.000244,726.639648 
	C1313.433960,717.694092 1298.457397,703.194153 1285.194824,686.745667 
	C1266.509644,663.572021 1257.542358,637.030579 1258.142578,607.223022 
	C1258.376953,595.579346 1258.234375,583.927979 1258.260010,572.280151 
	C1258.267090,569.091003 1258.261108,565.901794 1258.261108,560.718140 
	C1249.444946,566.127319 1242.280884,570.522888 1233.739014,575.763855 
	C1230.900269,568.144836 1228.533325,561.792114 1225.531128,553.734680 
	C1226.875610,553.013306 1228.458984,552.350342 1229.840454,551.395447 
	C1277.998047,518.110718 1326.136353,484.798218 1375.249634,452.010254 
	C1377.470459,460.294952 1378.719116,468.059052 1379.309326,476.033875 
	C1348.060913,497.370789 1317.531860,518.586670 1286.809448,539.518616 
	C1282.588013,542.394775 1281.603027,545.724243 1281.624268,550.347595 
	C1281.719604,571.269836 1281.613770,592.193115 1281.557861,613.115906 
	C1281.500488,634.592468 1289.615967,653.187500 1301.860474,670.264160 
	C1303.335693,672.321655 1305.735718,673.716248 1307.958984,676.016968 
	C1309.461060,677.738159 1310.711304,678.860474 1312.154297,680.628052 
	C1319.255005,687.608276 1326.162720,693.943176 1332.816650,701.199829 
	C1332.708618,710.294312 1332.854370,718.466980 1333.000244,726.639648 
z"/>
<path fill="#243B56" opacity="1.000000" stroke="none" 
	d="
M1377.976807,822.376831 
	C1387.596558,822.761414 1396.309570,822.498657 1404.829346,823.657715 
	C1426.003418,826.538147 1440.570435,840.275574 1444.781738,861.234192 
	C1447.985107,877.175659 1445.836914,892.505066 1436.157715,905.944092 
	C1426.258179,919.689148 1411.878906,925.066833 1395.480591,925.542542 
	C1384.859253,925.850708 1374.221802,925.600525 1362.349976,925.600525 
	C1362.186279,932.876404 1361.971313,939.711243 1361.895752,946.547668 
	C1361.818726,953.508850 1361.878784,960.471558 1361.878784,967.936157 
	C1353.564331,967.936157 1345.726562,967.936157 1337.235107,967.936157 
	C1337.235107,919.652710 1337.235107,871.627808 1337.235107,822.376526 
	C1350.610840,822.376526 1363.796509,822.376526 1377.976807,822.376831 
M1420.034424,869.678223 
	C1418.823608,858.792725 1413.783203,850.628601 1402.744873,847.857056 
	C1389.448486,844.518616 1375.934448,846.462097 1361.958008,846.049072 
	C1361.958008,856.338440 1361.877319,865.280090 1361.980469,874.219604 
	C1362.085938,883.359436 1361.477905,892.554626 1362.474731,901.908752 
	C1372.349609,901.908752 1380.985718,901.984924 1389.619995,901.893738 
	C1410.505127,901.673157 1419.883301,892.270508 1420.034424,869.678223 
z"/>
<path fill="#515252" opacity="1.000000" stroke="none" 
	d="
M658.174255,959.456482 
	C658.164429,913.603943 658.164429,868.688599 658.164429,823.234863 
	C661.451904,823.047180 664.024292,822.780457 666.597412,822.773071 
	C682.590759,822.727356 698.585205,822.627808 714.577393,822.769104 
	C726.839600,822.877380 738.260559,825.842407 748.278198,833.370483 
	C774.186096,852.839844 771.592041,898.731689 745.542969,914.733215 
	C743.321838,916.097534 741.191406,917.609680 738.239380,919.570923 
	C748.486267,935.661072 758.585388,951.519287 769.482666,968.630737 
	C761.934204,968.630737 755.657532,969.131226 749.536438,968.373962 
	C747.225464,968.087952 744.748657,965.240540 743.248901,962.966309 
	C736.284973,952.406433 729.320190,941.820740 723.006531,930.869141 
	C719.715088,925.159790 715.737000,923.227478 709.278076,923.616882 
	C699.722656,924.192932 690.106750,923.765808 679.689697,923.765808 
	C679.689697,938.960938 679.689697,953.167236 679.689697,968.090332 
	C672.383911,968.090332 665.921631,968.090332 658.774109,968.090332 
	C658.573364,965.471619 658.378723,962.932617 658.174255,959.456482 
M721.614441,903.931641 
	C724.406799,902.910461 727.365540,902.200989 729.962646,900.814148 
	C741.138672,894.846558 747.304810,881.707520 745.236450,868.764160 
	C742.963745,854.541870 734.704407,844.148743 721.536438,842.823853 
	C707.861511,841.447937 693.940552,842.517212 679.847839,842.517212 
	C679.847839,863.509583 679.847839,883.957214 679.847839,904.207886 
	C693.546997,904.207886 706.719788,904.207886 721.614441,903.931641 
z"/>
<path fill="#505050" opacity="1.000000" stroke="none" 
	d="
M920.124878,861.920227 
	C928.805298,881.340698 929.906128,900.637268 924.090088,920.151123 
	C914.623230,951.914368 887.467041,971.882996 855.658447,970.985596 
	C818.185425,969.928345 796.198792,945.877258 788.363037,917.066833 
	C781.936768,893.438721 785.642822,870.642212 799.814941,850.350403 
	C828.339233,809.509155 888.327881,811.193970 915.441101,853.384460 
	C917.057678,855.899902 918.386536,858.600220 920.124878,861.920227 
M883.526978,942.847839 
	C906.697083,927.355957 912.840698,891.906677 899.248230,866.649902 
	C890.412170,850.231445 876.099060,840.776855 857.271301,840.777832 
	C838.315125,840.778809 823.479004,849.260803 814.052490,866.260620 
	C808.082336,877.027222 805.259705,888.566162 806.352295,900.759338 
	C810.466736,946.676941 853.318054,961.798523 883.526978,942.847839 
z"/>
<path fill="#1F3653" opacity="1.000000" stroke="none" 
	d="
M1625.979614,925.931396 
	C1626.002319,934.710266 1626.024902,943.489075 1625.372681,953.701843 
	C1621.817993,966.446960 1617.807251,968.287659 1604.878784,964.231873 
	C1602.952881,950.371155 1603.643066,833.857727 1605.969971,826.002563 
	C1608.959473,826.002563 1612.230957,826.002563 1615.502563,826.002563 
	C1629.831421,826.002686 1644.164185,825.806335 1658.486938,826.101318 
	C1664.069214,826.216309 1669.837158,826.732483 1675.154175,828.304749 
	C1685.583984,831.388794 1695.003662,836.739441 1700.191406,846.756409 
	C1708.698853,863.183228 1709.215210,880.211121 1702.292236,897.454651 
	C1701.201782,900.170776 1700.753174,903.144592 1700.007812,905.999268 
	C1700.007812,905.999268 1700.000000,906.000000 1699.299072,906.069946 
	C1693.989624,909.315857 1689.261353,912.337463 1684.844482,915.760742 
	C1683.499268,916.803223 1681.870728,919.412537 1682.317383,920.519836 
	C1685.176636,927.610229 1685.914795,936.282166 1694.828613,939.379395 
	C1694.828613,939.379395 1694.411255,939.717957 1694.402222,940.252197 
	C1698.249146,948.490906 1702.105103,956.195374 1706.500000,964.976685 
	C1698.552490,965.757019 1691.852905,966.414795 1685.153442,967.072632 
	C1685.153442,967.072571 1685.095093,966.880493 1685.279297,966.150879 
	C1685.731934,962.338806 1684.223267,960.789246 1681.233276,960.517639 
	C1681.233276,960.517639 1681.499268,960.408569 1681.571777,959.803589 
	C1681.163940,955.695984 1680.292603,952.499451 1675.997314,951.982178 
	C1675.997314,951.982178 1675.616211,951.751221 1675.687744,950.730286 
	C1674.814697,945.762878 1674.637817,941.245239 1669.079834,940.730835 
	C1669.079834,940.730835 1669.640625,939.978271 1669.597412,939.635315 
	C1668.374268,933.436218 1666.000244,928.431702 1660.055908,925.973206 
	C1660.055908,925.973206 1659.993774,925.997437 1659.810913,925.183044 
	C1658.939575,923.701782 1658.264160,922.469788 1657.560669,922.453491 
	C1648.300049,922.238403 1639.031860,922.044922 1629.776367,922.279541 
	C1628.480713,922.312378 1627.243652,924.656921 1625.979614,925.931396 
M1631.515747,901.938782 
	C1640.848511,901.904663 1650.198120,902.214905 1659.510010,901.756958 
	C1674.060181,901.041260 1683.516113,891.404297 1684.526489,876.956787 
	C1685.677124,860.504883 1678.185669,849.465210 1663.249023,847.024048 
	C1651.153198,845.047058 1638.910645,846.050354 1626.091064,846.002625 
	C1626.091064,864.217651 1626.014771,881.164490 1626.243286,898.107239 
	C1626.260620,899.391235 1628.443237,900.646057 1631.515747,901.938782 
z"/>
<path fill="#203652" opacity="1.000000" stroke="none" 
	d="
M2066.561523,914.525635 
	C2076.223389,938.029480 2091.686523,948.278931 2113.570801,946.437500 
	C2123.270508,945.621460 2131.549805,941.862366 2138.370117,934.929199 
	C2140.191895,933.077209 2141.905273,931.118652 2144.096191,928.745911 
	C2149.585938,934.670227 2154.494141,939.966980 2159.856445,945.753784 
	C2150.410400,959.769836 2137.457520,967.708374 2121.319336,969.971558 
	C2065.335449,977.822449 2037.016357,935.102112 2038.569336,895.013550 
	C2039.484619,871.386841 2047.341187,850.962708 2066.026367,835.203613 
	C2087.664551,816.953735 2132.231934,812.760254 2156.791748,841.135132 
	C2157.648438,842.124939 2158.333252,843.263489 2159.430664,844.797302 
	C2154.416016,850.504150 2149.467773,856.135498 2144.513672,861.773499 
	C2139.510986,857.659241 2135.336182,853.287720 2130.341309,850.276733 
	C2105.910645,835.549622 2074.224121,849.450806 2066.304688,878.191162 
	C2063.048340,890.009033 2063.191406,901.896057 2066.561523,914.525635 
z"/>
<path fill="#1F3653" opacity="1.000000" stroke="none" 
	d="
M1034.395142,829.857910 
	C1034.395142,829.857910 1035.220703,829.871521 1035.729980,830.699341 
	C1038.201294,832.326904 1040.163452,833.126587 1042.125610,833.926331 
	C1042.125610,833.926331 1042.017944,834.004272 1042.084229,834.640686 
	C1043.776489,839.365601 1045.984863,842.806580 1050.945679,843.187012 
	C1050.761108,843.482178 1050.576538,843.777405 1050.432129,844.410889 
	C1050.903809,846.323792 1051.331299,847.899597 1051.767334,849.473022 
	C1054.724731,860.144165 1059.796875,870.352783 1056.261230,882.147583 
	C1054.707031,887.332275 1055.284180,893.155701 1054.893555,898.689148 
	C1054.893555,898.689148 1054.978516,898.677612 1054.262451,898.687866 
	C1052.534790,899.495178 1051.243408,900.102112 1050.553833,901.117737 
	C1040.629395,915.735291 1026.777100,922.408691 1009.236084,922.031494 
	C1000.293640,921.839172 991.343445,922.021606 982.396912,921.994934 
	C979.227356,921.985474 976.266907,922.154907 976.141235,926.406982 
	C976.141235,926.406982 976.255371,927.244934 975.507568,928.232422 
	C974.504883,936.833069 974.099854,944.444824 974.027771,952.059692 
	C973.895569,966.013367 973.297913,966.686646 959.330383,965.915283 
	C957.783508,965.829834 956.268799,965.159973 954.000000,964.568420 
	C954.000000,950.990967 954.123108,937.730591 953.916931,924.475342 
	C953.862610,920.982422 952.790649,917.505249 952.185913,914.020874 
	C952.053528,906.611328 951.921143,899.201721 952.531250,890.271973 
	C953.516296,871.806763 953.767273,854.862000 953.994385,837.916809 
	C954.041931,834.367859 954.001343,830.817688 954.001343,826.585876 
	C958.533386,826.346619 961.771423,825.998230 965.005249,826.033386 
	C988.190002,826.285278 1011.503784,824.278503 1034.395142,829.857910 
M976.525635,847.726257 
	C976.525635,865.524963 976.525635,883.323608 976.525635,901.753845 
	C988.771667,901.753845 1000.028381,902.403198 1011.178650,901.590942 
	C1025.394897,900.555359 1035.102539,889.271606 1035.015747,874.526733 
	C1034.938110,861.341736 1029.795044,848.003601 1011.568420,846.544922 
	C1000.376465,845.649170 989.057068,846.346069 976.525635,847.726257 
z"/>
<path fill="#8A9E88" opacity="1.000000" stroke="none" 
	d="
M1444.158081,493.652466 
	C1448.013062,493.235229 1447.657837,490.260956 1447.693970,487.652374 
	C1447.767334,482.350922 1447.715820,477.047760 1447.715820,470.559204 
	C1458.869507,469.593872 1469.352417,470.192810 1480.891357,470.108551 
	C1481.163940,473.852295 1481.570435,477.042114 1481.596069,480.235016 
	C1481.673340,489.888000 1481.956665,499.560211 1481.465088,509.189484 
	C1481.139648,515.561096 1483.109253,519.522339 1488.682007,523.034180 
	C1501.337769,531.009766 1513.500244,539.772766 1525.798828,548.308533 
	C1534.084229,554.058960 1534.293091,554.718201 1530.669067,563.772461 
	C1529.203491,567.434082 1527.289551,570.916199 1525.009766,575.668030 
	C1517.346436,570.970032 1510.227661,566.605896 1501.832275,561.459106 
	C1501.620239,566.287537 1501.379150,569.465820 1501.358643,572.645630 
	C1501.264038,587.292297 1501.526855,601.947937 1501.100098,616.584045 
	C1500.577637,634.496277 1495.618042,651.315002 1485.861450,667.639648 
	C1477.533569,670.509705 1470.468018,672.774902 1463.453979,675.190247 
	C1459.472656,676.561218 1458.139404,674.457520 1457.764648,670.501953 
	C1462.809326,662.650696 1466.804443,655.038025 1470.401733,647.035767 
	C1475.265991,636.215576 1478.399170,625.400574 1478.249390,613.497742 
	C1477.994141,593.223389 1477.871094,572.940674 1478.194214,552.669495 
	C1478.300659,545.992065 1476.291138,541.848206 1470.490967,538.132263 
	C1457.359497,529.719666 1444.808228,520.401550 1432.014893,510.682678 
	C1431.314819,504.145691 1433.402710,500.021729 1438.842651,497.528046 
	C1440.796265,496.632538 1442.396606,494.966766 1444.158081,493.652466 
z"/>
<path fill="#203855" opacity="1.000000" stroke="none" 
	d="
M1759.704102,906.763062 
	C1759.802246,918.563110 1759.900513,930.363159 1760.190430,943.891357 
	C1763.369263,946.417908 1766.349976,947.878418 1769.344849,947.908142 
	C1790.229858,948.115784 1811.117798,948.027039 1832.002808,948.919373 
	C1832.000488,951.138367 1832.009277,952.471252 1831.998413,953.804016 
	C1831.901001,965.741028 1831.683716,965.988770 1819.565552,966.002319 
	C1795.908325,966.028748 1772.250977,966.034180 1748.593750,965.985107 
	C1745.388306,965.978455 1742.183594,965.607056 1738.730957,965.388794 
	C1738.730957,918.667969 1738.730957,872.902222 1738.730957,826.680298 
	C1768.584961,826.680298 1797.694336,826.680298 1827.395508,826.680298 
	C1827.395508,831.842102 1827.395508,836.311096 1827.395508,841.529968 
	C1810.261963,845.789551 1793.403076,844.046448 1776.595947,843.188049 
	C1772.312012,842.969299 1768.013062,842.033813 1763.783081,842.325623 
	C1762.330444,842.425903 1761.066650,845.264465 1759.716797,846.852112 
	C1759.787354,857.319458 1759.858032,867.786865 1759.344116,879.698730 
	C1758.361938,884.844421 1760.981689,885.826843 1763.694336,885.854675 
	C1774.316406,885.963928 1785.182617,887.154053 1795.491089,885.319153 
	C1804.161621,883.775879 1811.381714,887.328979 1820.597900,886.422729 
	C1819.159790,892.474609 1818.126221,896.823730 1816.894653,902.006714 
	C1813.195679,902.006714 1809.934204,902.006653 1806.672852,902.006775 
	C1793.386841,902.007385 1780.100464,902.061279 1766.815063,901.973755 
	C1763.213257,901.950073 1760.052246,902.154053 1759.704102,906.763062 
z"/>
<path fill="#505050" opacity="1.000000" stroke="none" 
	d="
M629.033264,838.894165 
	C631.238220,840.441223 632.934937,841.512817 635.209229,842.949219 
	C629.798157,848.932495 625.648071,853.521362 622.045166,857.505249 
	C615.269287,852.950073 609.426941,847.782410 602.639954,844.683777 
	C578.818054,833.807983 550.473145,844.042847 539.179565,867.976624 
	C529.628906,888.216858 530.386658,908.703491 542.140930,928.107422 
	C557.816589,953.984680 593.395691,959.762756 615.474915,939.277832 
	C617.177917,937.697876 618.926514,936.167053 621.254211,934.073425 
	C625.614990,937.988892 629.940186,941.872314 634.183960,945.682678 
	C618.814697,969.110474 584.991516,976.631531 558.771667,966.990906 
	C526.693115,955.196045 507.002594,920.475342 512.688293,885.080444 
	C515.160217,869.691650 520.649231,855.625183 531.116394,843.746887 
	C558.604309,812.553040 605.019104,814.575684 629.033264,838.894165 
z"/>
<path fill="#223349" opacity="1.000000" stroke="none" 
	d="
M1239.601196,907.892273 
	C1239.601196,919.807983 1239.601196,931.723633 1239.601196,944.501465 
	C1264.830688,944.501465 1288.704956,944.501465 1313.292725,944.501465 
	C1313.292725,952.783508 1313.292725,960.215942 1313.292725,968.107422 
	C1281.013794,968.107422 1248.780518,968.107422 1215.913208,968.107422 
	C1215.913208,919.967651 1215.913208,871.877075 1215.913208,823.096497 
	C1247.135620,823.096497 1278.246948,823.096497 1310.130127,823.096497 
	C1310.130127,830.283386 1310.130127,837.698669 1310.130127,846.151245 
	C1286.986816,846.151245 1263.849365,846.151245 1240.442627,846.151245 
	C1240.442627,858.407166 1240.442627,869.642334 1240.442627,881.715576 
	C1260.949097,881.715576 1281.133667,881.715576 1302.051514,881.715576 
	C1302.051514,889.978943 1302.051514,897.414917 1302.051514,906.051819 
	C1281.621704,906.051819 1261.403198,906.051819 1240.619385,905.683350 
	C1241.340576,900.534485 1245.305054,902.088562 1248.332153,902.058655 
	C1262.313232,901.920410 1276.296753,902.035095 1290.278809,901.966309 
	C1293.165894,901.952148 1296.051147,901.541931 1299.284302,901.286804 
	C1299.284302,896.080139 1299.284302,891.632446 1299.284302,886.000000 
	C1294.371338,886.000000 1290.131714,886.000549 1285.892212,885.999817 
	C1272.575562,885.997559 1259.255737,886.170471 1245.943481,885.927551 
	C1237.752075,885.778076 1236.143555,883.907898 1236.022827,875.774536 
	C1235.919067,868.784790 1235.948364,861.791870 1236.013184,854.801208 
	C1236.113281,844.025513 1238.048462,842.062073 1248.886108,842.017822 
	C1265.198608,841.951111 1281.511963,842.036865 1297.824585,841.971313 
	C1300.998779,841.958557 1304.171387,841.550659 1308.038452,841.275696 
	C1307.777466,835.670288 1307.570068,831.218018 1307.373047,826.989197 
	C1292.528442,825.003052 1225.839355,825.650879 1218.950439,827.679443 
	C1217.168335,839.310852 1217.660156,957.719727 1219.629028,965.307129 
	C1249.277954,965.307129 1279.032227,965.307129 1309.340942,965.307129 
	C1309.340942,959.504211 1309.340942,954.394531 1309.340942,948.561768 
	C1305.496216,948.354187 1302.261108,948.037598 1299.025146,948.028442 
	C1281.380859,947.978394 1263.735718,948.072327 1246.091675,947.975525 
	C1236.871460,947.924927 1235.916138,946.794556 1236.006836,937.461243 
	C1236.010010,937.128357 1235.952637,936.783142 1236.020508,936.464355 
	C1237.474609,929.643555 1237.844849,922.906311 1236.176392,915.967834 
	C1235.484985,913.092163 1234.824219,909.014221 1239.601196,907.892273 
z"/>
<path fill="#505050" opacity="1.000000" stroke="none" 
	d="
M466.104004,967.849548 
	C465.426178,966.569031 464.156464,965.288757 464.156036,964.008057 
	C464.139832,917.509094 464.241791,871.010071 465.593079,824.691101 
	C471.625580,825.556519 476.392395,826.241943 481.019836,826.907349 
	C481.441711,828.479187 481.911041,829.414490 481.912598,830.350586 
	C481.984619,873.418335 482.091278,916.486511 481.880005,959.553101 
	C481.866119,962.387573 479.387909,965.209961 478.055969,968.037903 
	C475.234253,968.178467 472.412567,968.319031 468.784210,967.647583 
	C467.771484,965.867004 467.565399,964.898438 467.359314,963.929810 
	C467.053101,963.976868 466.746857,964.023865 466.440643,964.070923 
	C466.328430,965.330444 466.216217,966.590027 466.104004,967.849548 
z"/>
<path fill="#223349" opacity="1.000000" stroke="none" 
	d="
M1942.201660,962.219482 
	C1936.134766,964.204773 1930.117188,967.703247 1923.992188,967.902222 
	C1902.390381,968.604309 1880.751831,968.175293 1858.422119,968.175293 
	C1858.422119,919.873657 1858.422119,871.488586 1858.422119,821.738770 
	C1882.147461,822.428040 1905.835693,821.698975 1929.178223,824.197754 
	C1951.963257,826.636902 1968.510620,840.581543 1977.295532,861.650513 
	C1988.404297,888.292847 1987.623047,914.807251 1971.196533,940.179077 
	C1970.443359,940.397949 1969.955688,939.966125 1970.044434,939.244141 
	C1975.782959,926.826782 1980.467163,915.135376 1980.352539,901.551025 
	C1980.229126,886.907959 1980.296753,872.812622 1972.840942,859.349304 
	C1961.328857,838.561584 1943.450439,827.976013 1920.640015,826.263489 
	C1903.419556,824.970581 1886.023438,825.986511 1868.705811,826.057129 
	C1866.811035,826.064880 1864.918335,826.615906 1862.895020,826.935425 
	C1861.895020,835.605713 1860.884033,843.766357 1860.055664,851.945374 
	C1859.822632,854.244690 1860.024658,856.606018 1860.202026,858.925537 
	C1860.756470,866.173950 1861.852417,873.411987 1861.916626,880.661255 
	C1862.134766,905.303955 1861.976440,929.949829 1862.026367,954.594360 
	C1862.033569,958.113342 1862.396362,961.631714 1862.641846,965.990479 
	C1866.978271,965.990479 1870.250610,966.001160 1873.523071,965.988770 
	C1896.400879,965.902466 1919.364380,967.232727 1941.992065,961.957275 
	C1942.059814,962.046326 1942.201660,962.219421 1942.201660,962.219482 
z"/>
<path fill="#778A96" opacity="1.000000" stroke="none" 
	d="
M1333.135986,727.163574 
	C1332.854370,718.466980 1332.708618,710.294312 1333.442017,701.523682 
	C1343.779663,706.474060 1353.190796,712.105347 1362.715454,717.537781 
	C1367.868164,720.476685 1373.144653,725.076538 1378.493408,725.263733 
	C1383.801270,725.449402 1389.260132,721.016052 1394.672974,718.654358 
	C1396.805542,717.723877 1398.992188,716.917664 1401.517334,716.813538 
	C1403.545044,718.560730 1405.107422,720.116943 1406.892090,720.437866 
	C1414.081055,721.731140 1416.927002,726.016174 1416.402832,732.999573 
	C1414.711548,734.039368 1413.020386,735.079163 1410.331787,735.656006 
	C1403.363281,733.158203 1400.030151,738.607300 1395.370239,740.287170 
	C1395.163208,740.361755 1395.757080,742.658203 1395.977783,743.919739 
	C1386.172852,752.148315 1376.341431,752.684265 1365.319092,745.582886 
	C1355.054199,738.969543 1343.986328,733.602905 1333.135986,727.163574 
z"/>
<path fill="#223349" opacity="1.000000" stroke="none" 
	d="
M2475.217285,825.250488 
	C2452.046875,826.477295 2458.237305,822.585388 2447.646240,842.755371 
	C2434.819336,867.182983 2421.909668,891.567139 2408.994385,915.948303 
	C2408.255859,917.342834 2407.146729,918.541077 2405.384766,920.966187 
	C2403.185547,918.813049 2401.020264,917.411438 2399.855469,915.423584 
	C2395.659668,908.261292 2391.747070,900.930420 2387.825684,893.610535 
	C2377.311523,873.984375 2367.026611,854.232727 2356.291748,834.728455 
	C2350.665039,824.504822 2349.817627,824.498474 2336.638672,827.509216 
	C2336.638672,873.132996 2336.638672,918.888916 2336.638672,965.317749 
	C2342.373047,965.317749 2347.483154,965.317749 2353.420654,965.317749 
	C2353.631592,961.625671 2353.966797,958.402039 2353.975098,955.177612 
	C2354.025146,935.860962 2353.969238,916.544006 2354.029785,897.227478 
	C2354.040039,893.927979 2354.440918,890.629761 2355.204346,886.712585 
	C2355.747314,913.036072 2355.747314,939.977844 2355.747314,967.645752 
	C2348.549561,967.645752 2341.139404,967.645752 2333.274902,967.645752 
	C2333.274902,919.665039 2333.274902,871.836792 2333.274902,823.225159 
	C2339.834717,823.225159 2346.293213,823.225159 2353.813477,823.225159 
	C2370.347900,854.123413 2387.221680,885.655640 2404.765625,918.440491 
	C2421.716064,885.836426 2437.940430,854.628723 2454.451660,822.869629 
	C2461.381592,823.196106 2468.499268,820.405457 2475.217285,825.250488 
z"/>
<path fill="#879992" opacity="1.000000" stroke="none" 
	d="
M1417.092041,732.771912 
	C1416.927002,726.016174 1414.081055,721.731140 1406.892090,720.437866 
	C1405.107422,720.116943 1403.545044,718.560730 1401.928955,716.367188 
	C1422.970337,703.589722 1441.962524,689.493408 1457.552368,671.105103 
	C1458.139404,674.457520 1459.472656,676.561218 1463.453979,675.190247 
	C1470.468018,672.774902 1477.533569,670.509705 1485.354370,668.112610 
	C1479.297363,684.485901 1467.050415,696.847229 1453.855225,707.862061 
	C1442.721069,717.156311 1429.871582,724.395447 1417.092041,732.771912 
z"/>
<path fill="#243B56" opacity="1.000000" stroke="none" 
	d="
M1760.637573,846.562622 
	C1761.066650,845.264465 1762.330444,842.425903 1763.783081,842.325623 
	C1768.013062,842.033813 1772.312012,842.969299 1776.595947,843.188049 
	C1793.403076,844.046448 1810.261963,845.789551 1827.395508,841.529968 
	C1827.395508,836.311096 1827.395508,831.842102 1827.395508,826.680298 
	C1797.694336,826.680298 1768.584961,826.680298 1738.730957,826.680298 
	C1738.730957,872.902222 1738.730957,918.667969 1738.730957,965.388794 
	C1742.183594,965.607056 1745.388306,965.978455 1748.593750,965.985107 
	C1772.250977,966.034180 1795.908325,966.028748 1819.565552,966.002319 
	C1831.683716,965.988770 1831.901001,965.741028 1831.998413,953.804016 
	C1832.009277,952.471252 1832.000488,951.138367 1832.005859,948.258362 
	C1832.018066,946.270752 1832.025146,945.830383 1832.032104,945.390076 
	C1832.735107,947.008667 1833.970581,948.603394 1834.044312,950.250122 
	C1834.296509,955.888367 1834.140991,961.544800 1834.140991,967.871826 
	C1801.235840,967.871826 1768.459595,967.871826 1735.084961,967.871826 
	C1735.084961,919.673340 1735.084961,871.575256 1735.084961,822.907104 
	C1766.703369,822.907104 1797.887817,822.907104 1829.809570,822.907104 
	C1829.809570,830.251099 1829.809570,837.717468 1829.809570,846.273193 
	C1807.347778,846.273193 1784.453125,846.273193 1760.637573,846.562622 
z"/>
<path fill="#879992" opacity="1.000000" stroke="none" 
	d="
M1443.870361,493.059998 
	C1442.396606,494.966766 1440.796265,496.632538 1438.842651,497.528046 
	C1433.402710,500.021729 1431.314819,504.145691 1431.402832,510.470520 
	C1413.853882,499.292603 1396.910889,487.557861 1379.967773,475.823151 
	C1378.719116,468.059052 1377.470459,460.294952 1375.895996,451.708344 
	C1377.328979,448.415894 1379.341431,447.348328 1382.222046,449.326172 
	C1385.210449,451.377960 1388.366211,453.185486 1391.362793,455.226074 
	C1406.079224,465.247833 1420.806763,475.254700 1435.432007,485.408264 
	C1438.367676,487.446259 1440.876953,490.098511 1443.870361,493.059998 
z"/>
<path fill="#223349" opacity="1.000000" stroke="none" 
	d="
M1700.585449,905.635498 
	C1700.753174,903.144592 1701.201782,900.170776 1702.292236,897.454651 
	C1709.215210,880.211121 1708.698853,863.183228 1700.191406,846.756409 
	C1695.003662,836.739441 1685.583984,831.388794 1675.154175,828.304749 
	C1669.837158,826.732483 1664.069214,826.216309 1658.486938,826.101318 
	C1644.164185,825.806335 1629.831421,826.002686 1615.502563,826.002563 
	C1612.230957,826.002563 1608.959473,826.002563 1605.969971,826.002563 
	C1603.643066,833.857727 1602.952881,950.371155 1604.878784,964.231873 
	C1617.807251,968.287659 1621.817993,966.446960 1625.195068,954.623840 
	C1625.890381,958.407715 1626.088501,962.703552 1626.322510,967.774109 
	C1618.145142,967.774109 1610.387207,967.774109 1601.951782,967.774109 
	C1601.951782,919.890137 1601.951782,871.810669 1601.951782,822.896057 
	C1604.087402,822.748169 1606.253174,822.472961 1608.419434,822.468262 
	C1624.392334,822.433594 1640.368408,822.266785 1656.336426,822.547791 
	C1662.615723,822.658264 1669.098145,822.995605 1675.105469,824.633362 
	C1694.335449,829.876099 1705.642334,843.166199 1709.235718,862.363831 
	C1712.054932,877.424866 1710.543701,892.231750 1700.585449,905.635498 
z"/>
<path fill="#203652" opacity="1.000000" stroke="none" 
	d="
M2017.506592,969.547241 
	C2001.497070,971.334229 1992.213989,961.051208 1996.264282,947.054565 
	C1998.307739,939.993103 2004.756714,934.986511 2011.612305,935.139343 
	C2018.779419,935.299011 2024.493164,940.051697 2026.217163,947.725403 
	C2028.202637,956.561768 2026.559326,964.206726 2017.506592,969.547241 
z"/>
<path fill="#243B56" opacity="1.000000" stroke="none" 
	d="
M1760.464111,906.394165 
	C1760.052246,902.154053 1763.213257,901.950073 1766.815063,901.973755 
	C1780.100464,902.061279 1793.386841,902.007385 1806.672852,902.006775 
	C1809.934204,902.006653 1813.195679,902.006714 1816.894653,902.006714 
	C1818.126221,896.823730 1819.159790,892.474609 1820.597900,886.422729 
	C1811.381714,887.328979 1804.161621,883.775879 1795.491089,885.319153 
	C1785.182617,887.154053 1774.316406,885.963928 1763.694336,885.854675 
	C1760.981689,885.826843 1758.361938,884.844421 1759.202637,880.635132 
	C1763.090454,880.750854 1766.529785,881.875549 1769.981079,881.913574 
	C1786.921021,882.100403 1803.864258,881.998352 1821.530273,881.998352 
	C1821.530273,889.949951 1821.530273,897.390320 1821.530273,906.025269 
	C1801.553833,906.025269 1781.388916,906.025269 1760.464111,906.394165 
z"/>
<path fill="#223349" opacity="1.000000" stroke="none" 
	d="
M1034.120728,829.183594 
	C1011.503784,824.278503 988.190002,826.285278 965.005249,826.033386 
	C961.771423,825.998230 958.533386,826.346619 954.001343,826.585876 
	C954.001343,830.817688 954.041931,834.367859 953.994385,837.916809 
	C953.767273,854.862000 953.516296,871.806763 952.712891,889.363831 
	C952.151917,867.776245 952.151917,845.576477 952.151917,822.477417 
	C966.338989,822.477417 980.221680,822.333191 994.099487,822.530334 
	C1002.722168,822.652771 1011.394897,822.827942 1019.933716,823.882141 
	C1024.689209,824.469238 1029.216309,826.906128 1034.120728,829.183594 
z"/>
<path fill="#223349" opacity="1.000000" stroke="none" 
	d="
M2452.223877,900.977173 
	C2453.596680,909.827271 2455.345703,919.568848 2455.857910,929.374939 
	C2456.463135,940.961487 2456.000000,952.603943 2456.000000,965.310486 
	C2461.241699,965.576843 2465.689697,965.802856 2469.974609,966.020630 
	C2471.447998,963.062866 2472.583740,960.783142 2474.374512,958.255737 
	C2475.193604,961.241272 2475.357422,964.474609 2475.539307,968.065796 
	C2467.416260,968.065796 2460.197998,968.065796 2452.052734,968.065796 
	C2452.052734,945.709778 2452.052734,923.803528 2452.223877,900.977173 
z"/>
<path fill="#223349" opacity="1.000000" stroke="none" 
	d="
M478.725403,968.211853 
	C479.387909,965.209961 481.866119,962.387573 481.880005,959.553101 
	C482.091278,916.486511 481.984619,873.418335 481.912598,830.350586 
	C481.911041,829.414490 481.441711,828.479187 481.019836,826.907349 
	C476.392395,826.241943 471.625580,825.556519 466.343964,824.207764 
	C471.736755,823.544434 477.644379,823.544434 484.218262,823.544434 
	C484.218262,871.260742 484.218262,918.975586 484.218262,967.451050 
	C483.005035,967.686157 481.199921,968.036011 478.725403,968.211853 
z"/>
<path fill="#223349" opacity="1.000000" stroke="none" 
	d="
M977.030151,926.113159 
	C976.266907,922.154907 979.227356,921.985474 982.396912,921.994934 
	C991.343445,922.021606 1000.293640,921.839172 1009.236084,922.031494 
	C1026.777100,922.408691 1040.629395,915.735291 1050.553833,901.117737 
	C1051.243408,900.102112 1052.534790,899.495178 1054.269531,898.730225 
	C1046.139771,918.203247 1029.269775,924.356873 1009.748718,925.509827 
	C999.169678,926.134644 988.530884,925.749084 977.030151,926.113159 
z"/>
<path fill="#223349" opacity="1.000000" stroke="none" 
	d="
M952.008057,914.942505 
	C952.790649,917.505249 953.862610,920.982422 953.916931,924.475342 
	C954.123108,937.730591 954.000000,950.990967 954.000000,964.568420 
	C956.268799,965.159973 957.783508,965.829834 959.330383,965.915283 
	C973.297913,966.686646 973.895569,966.013367 974.027771,952.059692 
	C974.099854,944.444824 974.504883,936.833069 975.333740,928.617920 
	C975.907776,941.198547 975.907776,954.381104 975.907776,967.995728 
	C968.175232,967.995728 960.664368,967.995728 951.830200,967.995728 
	C951.830200,950.596558 951.830200,933.230347 952.008057,914.942505 
z"/>
<path fill="#223349" opacity="1.000000" stroke="none" 
	d="
M1831.212646,945.108948 
	C1832.025146,945.830383 1832.018066,946.270752 1832.008057,947.372192 
	C1811.117798,948.027039 1790.229858,948.115784 1769.344849,947.908142 
	C1766.349976,947.878418 1763.369263,946.417908 1760.184326,944.831787 
	C1777.831421,944.274048 1795.675903,944.513672 1813.520874,944.728271 
	C1819.144531,944.795898 1824.768921,944.796570 1831.212646,945.108948 
z"/>
<path fill="#223349" opacity="1.000000" stroke="none" 
	d="
M1685.706787,967.579529 
	C1691.852905,966.414795 1698.552490,965.757019 1706.500000,964.976685 
	C1702.105103,956.195374 1698.249146,948.490906 1694.562988,940.036865 
	C1700.607300,948.351562 1706.481812,957.415894 1713.482666,968.217957 
	C1707.688477,968.311829 1703.372192,968.456238 1699.057007,968.430664 
	C1694.790771,968.405334 1690.525635,968.208191 1685.706787,967.579529 
z"/>
<path fill="#223349" opacity="1.000000" stroke="none" 
	d="
M1055.384033,898.151001 
	C1055.284180,893.155701 1054.707031,887.332275 1056.261230,882.147583 
	C1059.796875,870.352783 1054.724731,860.144165 1051.767334,849.473022 
	C1051.331299,847.899597 1050.903809,846.323792 1050.694824,843.964172 
	C1060.850952,856.173279 1061.389526,871.012024 1059.122314,886.283875 
	C1058.550293,890.135986 1056.984009,893.840515 1055.384033,898.151001 
z"/>
<path fill="#223349" opacity="1.000000" stroke="none" 
	d="
M1694.639160,938.697510 
	C1685.914795,936.282166 1685.176636,927.610229 1682.317383,920.519836 
	C1681.870728,919.412537 1683.499268,916.803223 1684.844482,915.760742 
	C1689.261353,912.337463 1693.989624,909.315857 1699.299316,906.074585 
	C1695.057861,910.660400 1690.115234,915.311707 1684.126221,920.947632 
	C1687.129639,925.913147 1690.789795,931.964355 1694.639160,938.697510 
z"/>
<path fill="#223349" opacity="1.000000" stroke="none" 
	d="
M1626.871094,925.612427 
	C1627.243652,924.656921 1628.480713,922.312378 1629.776367,922.279541 
	C1639.031860,922.044922 1648.300049,922.238403 1657.560669,922.453491 
	C1658.264160,922.469788 1658.939575,923.701782 1659.828125,925.154053 
	C1649.272949,925.724182 1638.517944,925.508850 1626.871094,925.612427 
z"/>
<path fill="#223349" opacity="1.000000" stroke="none" 
	d="
M1970.687256,940.613831 
	C1964.399048,951.191406 1955.825195,958.958923 1942.962280,962.231201 
	C1942.201660,962.219421 1942.059814,962.046326 1942.419434,961.437866 
	C1953.537720,956.089172 1961.154053,947.255554 1969.955688,939.966125 
	C1969.955688,939.966125 1970.443359,940.397949 1970.687256,940.613831 
z"/>
<path fill="#879992" opacity="1.000000" stroke="none" 
	d="
M1396.664795,743.824463 
	C1395.757080,742.658203 1395.163208,740.361755 1395.370239,740.287170 
	C1400.030151,738.607300 1403.363281,733.158203 1409.740967,735.763306 
	C1405.882202,738.798706 1401.617065,741.263977 1396.664795,743.824463 
z"/>
<path fill="#223349" opacity="1.000000" stroke="none" 
	d="
M1660.261963,926.630188 
	C1666.000244,928.431702 1668.374268,933.436218 1669.345337,940.031006 
	C1666.246948,936.275513 1663.357544,931.781372 1660.261963,926.630188 
z"/>
<path fill="#223349" opacity="1.000000" stroke="none" 
	d="
M1050.715698,842.570923 
	C1045.984863,842.806580 1043.776489,839.365601 1042.107544,834.578491 
	C1044.871582,836.571533 1047.678711,839.263184 1050.715698,842.570923 
z"/>
<path fill="#223349" opacity="1.000000" stroke="none" 
	d="
M1669.295166,941.387451 
	C1674.637817,941.245239 1674.814697,945.762878 1675.703125,950.508057 
	C1673.601440,948.219177 1671.556030,945.131592 1669.295166,941.387451 
z"/>
<path fill="#223349" opacity="1.000000" stroke="none" 
	d="
M1676.107910,952.631714 
	C1680.292603,952.499451 1681.163940,955.695984 1681.502075,959.929321 
	C1679.645996,958.200439 1677.932251,955.740845 1676.107910,952.631714 
z"/>
<path fill="#223349" opacity="1.000000" stroke="none" 
	d="
M1041.817139,833.364014 
	C1040.163452,833.126587 1038.201294,832.326904 1036.116455,830.844055 
	C1037.832153,831.041138 1039.670288,831.921387 1041.817139,833.364014 
z"/>
<path fill="#223349" opacity="1.000000" stroke="none" 
	d="
M1681.371094,961.124451 
	C1684.223267,960.789246 1685.731934,962.338806 1685.182373,966.125244 
	C1683.770264,965.129883 1682.639526,963.430603 1681.371094,961.124451 
z"/>
<path fill="#223349" opacity="1.000000" stroke="none" 
	d="
M466.550537,968.044434 
	C466.216217,966.590027 466.328430,965.330444 466.440643,964.070923 
	C466.746857,964.023865 467.053101,963.976868 467.359314,963.929810 
	C467.565399,964.898438 467.771484,965.867004 467.961243,967.424377 
	C467.944977,968.013123 466.997101,968.239380 466.550537,968.044434 
z"/>
<path fill="#FAFAFA" opacity="1.000000" stroke="none" 
	d="
M2207.375000,859.479065 
	C2223.481445,844.011902 2241.085938,840.205994 2257.968750,848.388977 
	C2271.154297,854.779846 2278.487549,865.903015 2282.406494,879.638611 
	C2288.581299,901.280212 2281.826904,925.297668 2266.011719,937.800110 
	C2246.946533,952.871704 2219.265625,948.773132 2205.008057,929.090088 
	C2190.527100,909.098816 2192.111572,876.273071 2207.375000,859.479065 
z"/>
<path fill="#F6F8F6" opacity="1.000000" stroke="none" 
	d="
M1106.754883,875.980103 
	C1106.757324,865.753662 1106.757324,856.519226 1106.757324,846.269165 
	C1119.915649,845.837585 1132.426270,844.920532 1144.760986,847.091919 
	C1158.825806,849.567810 1166.510864,861.008728 1165.581055,876.480286 
	C1164.729614,890.648010 1155.072144,901.062195 1141.050903,901.822327 
	C1130.154175,902.413086 1119.199829,901.940491 1106.955444,901.940491 
	C1106.885010,893.283997 1106.818726,885.128113 1106.754883,875.980103 
z"/>
<path fill="#F6F8F6" opacity="1.000000" stroke="none" 
	d="
M1535.682373,910.973328 
	C1520.987061,911.825989 1506.467041,911.825989 1490.568359,911.825989 
	C1497.426636,892.133118 1504.936768,873.056702 1513.131592,852.486816 
	C1521.091064,872.672058 1528.474365,891.396362 1535.682373,910.973328 
z"/>
<path fill="#F6F8F6" opacity="1.000000" stroke="none" 
	d="
M1379.309326,476.033875 
	C1396.910889,487.557861 1413.853882,499.292603 1431.408936,511.239502 
	C1444.808228,520.401550 1457.359497,529.719666 1470.490967,538.132263 
	C1476.291138,541.848206 1478.300659,545.992065 1478.194214,552.669495 
	C1477.871094,572.940674 1477.994141,593.223389 1478.249390,613.497742 
	C1478.399170,625.400574 1475.265991,636.215576 1470.401733,647.035767 
	C1466.804443,655.038025 1462.809326,662.650696 1457.764648,670.501953 
	C1441.962524,689.493408 1422.970337,703.589722 1401.565796,715.608459 
	C1398.992188,716.917664 1396.805542,717.723877 1394.672974,718.654358 
	C1389.260132,721.016052 1383.801270,725.449402 1378.493408,725.263733 
	C1373.144653,725.076538 1367.868164,720.476685 1362.715454,717.537781 
	C1353.190796,712.105347 1343.779663,706.474060 1333.695801,700.601868 
	C1326.162720,693.943176 1319.255005,687.608276 1312.958740,680.644775 
	C1315.702637,679.843933 1317.834961,679.671753 1320.877563,679.667358 
	C1327.740234,679.815125 1333.692749,679.813049 1339.644897,679.768372 
	C1342.988892,679.743286 1345.684570,678.587463 1345.726318,674.786560 
	C1345.844727,664.010315 1345.767822,653.231934 1345.767822,642.362366 
	C1332.215332,642.362366 1320.171753,642.362366 1307.809570,642.362366 
	C1307.809570,647.424377 1307.809570,651.691284 1307.697510,656.852661 
	C1307.625977,663.637451 1307.666504,669.527771 1307.707031,675.418152 
	C1305.735718,673.716248 1303.335693,672.321655 1301.860474,670.264160 
	C1289.615967,653.187500 1281.500488,634.592468 1281.557861,613.115906 
	C1281.613770,592.193115 1281.719604,571.269836 1281.624268,550.347595 
	C1281.603027,545.724243 1282.588013,542.394775 1286.809448,539.518616 
	C1317.531860,518.586670 1348.060913,497.370789 1379.309326,476.033875 
M1341.618774,554.648743 
	C1345.238281,549.777832 1348.857666,544.906921 1352.375488,540.172668 
	C1349.283081,536.349976 1347.358276,537.984436 1345.146484,539.697876 
	C1342.204224,541.976990 1339.018555,543.941895 1335.834473,544.383484 
	C1335.068359,543.151917 1334.334229,540.874390 1333.531128,540.849854 
	C1325.045898,540.589783 1316.549561,540.688782 1306.667480,540.688782 
	C1306.667480,552.352783 1306.580933,562.856506 1306.710693,573.357483 
	C1306.761597,577.476685 1309.598267,579.127502 1313.327515,579.245728 
	C1318.630981,579.413940 1323.941650,579.431641 1329.248535,579.399414 
	C1346.711914,579.293457 1346.188477,582.399658 1345.778564,560.747559 
	C1345.760254,559.775513 1345.750488,558.518127 1345.183105,557.909973 
	C1344.377075,557.046021 1343.057129,556.661621 1341.618774,554.648743 
M1337.286743,592.648010 
	C1328.516968,588.685974 1319.330688,591.073364 1310.337646,591.183655 
	C1309.044189,591.199524 1306.755005,594.350586 1306.691162,596.114624 
	C1306.368652,605.032654 1306.566772,613.972778 1306.714722,622.902954 
	C1306.779053,626.791565 1308.950195,629.220947 1312.849609,629.295471 
	C1322.107544,629.472290 1331.370972,629.422363 1340.631592,629.363098 
	C1343.702881,629.343506 1345.683716,627.741638 1345.734741,624.524536 
	C1345.827759,618.651794 1345.761230,612.776550 1345.761230,606.918579 
	C1343.100708,606.523499 1341.501709,606.286011 1340.425171,604.794617 
	C1343.691284,601.168579 1346.998291,597.578308 1350.208496,593.903503 
	C1352.292480,591.517822 1352.491211,589.287170 1349.152588,587.610352 
	C1345.433472,589.743896 1341.686157,591.893738 1337.286743,592.648010 
M1398.133911,567.697266 
	C1385.912354,567.697266 1373.690674,567.697266 1360.534546,567.697266 
	C1360.534546,586.531372 1360.385498,604.697510 1360.643433,622.857849 
	C1360.705078,627.194031 1363.898071,628.756653 1368.285767,628.688599 
	C1385.562866,628.420593 1402.843872,628.400940 1421.965332,628.557800 
	C1430.608887,628.548767 1439.255859,628.684875 1447.895142,628.489319 
	C1456.307129,628.298889 1457.663452,627.026978 1457.806763,618.425476 
	C1458.017090,605.795837 1457.829956,593.159546 1457.814819,580.526123 
	C1457.810181,576.647461 1457.814087,572.768799 1457.814087,567.923706 
	C1437.695190,567.923706 1418.845215,567.923706 1398.133911,567.697266 
M1449.861450,544.290466 
	C1423.930176,544.252747 1397.998657,544.166687 1372.067505,544.200684 
	C1361.532593,544.214478 1360.000244,545.885315 1360.173706,556.452942 
	C1360.199463,558.023254 1360.598999,559.587402 1360.876221,561.504272 
	C1393.146362,561.504272 1424.876099,561.504272 1456.471191,561.504272 
	C1459.015991,549.499695 1458.882080,549.057739 1449.861450,544.290466 
M1448.038086,656.550049 
	C1422.079224,656.542542 1396.120239,656.534729 1370.161377,656.528015 
	C1368.165161,656.527466 1366.011597,656.071167 1364.220947,656.679565 
	C1362.704468,657.194885 1361.607788,658.945679 1360.325317,660.149780 
	C1361.446777,661.137512 1362.458862,662.316833 1363.730103,663.041931 
	C1364.505859,663.484436 1365.680176,663.278381 1366.675537,663.278442 
	C1394.963867,663.280701 1423.252319,663.317139 1451.539917,663.165588 
	C1453.458252,663.155273 1455.369141,661.718018 1457.217407,660.971069 
	C1456.004395,655.849670 1452.616577,656.766968 1448.038086,656.550049 
M1385.061523,644.112915 
	C1378.417847,644.127075 1371.772217,644.052979 1365.131348,644.195679 
	C1362.163330,644.259399 1359.951782,645.381042 1360.994873,649.174316 
	C1361.927979,649.493835 1362.852539,650.085632 1363.778442,650.087524 
	C1393.673828,650.148315 1423.569458,650.178223 1453.464600,650.077576 
	C1454.782593,650.073120 1456.096436,648.797363 1457.709717,647.959351 
	C1456.728394,646.594666 1456.197266,645.187134 1455.639282,645.176514 
	C1432.774292,644.741394 1409.907104,644.431946 1385.061523,644.112915 
M1390.996094,669.707947 
	C1380.884399,669.943420 1370.720947,669.222229 1360.239380,671.190979 
	C1361.321777,673.594177 1362.725708,675.607544 1364.285645,675.736633 
	C1369.567017,676.173828 1374.903809,675.971985 1380.219360,675.962524 
	C1391.847778,675.941833 1403.476562,675.918213 1415.104614,675.830505 
	C1418.187744,675.807251 1421.327026,675.613770 1420.438110,669.705200 
	C1411.407104,669.705200 1402.196777,669.705200 1390.996094,669.707947 
z"/>
<path fill="#778A96" opacity="1.000000" stroke="none" 
	d="
M1307.958984,676.016968 
	C1307.666504,669.527771 1307.625977,663.637451 1308.420410,656.854858 
	C1310.218018,655.961182 1311.180420,655.959717 1312.253418,656.845581 
	C1312.363770,662.602417 1312.363770,667.471985 1312.363770,672.609070 
	C1315.635132,673.173096 1317.833130,673.552063 1320.029541,674.627808 
	C1320.007568,676.716309 1319.987305,678.107971 1319.967163,679.499573 
	C1317.834961,679.671753 1315.702637,679.843933 1312.765991,679.999451 
	C1310.711304,678.860474 1309.461060,677.738159 1307.958984,676.016968 
z"/>
<path fill="#FAFAFA" opacity="1.000000" stroke="none" 
	d="
M1420.104370,870.528442 
	C1419.883301,892.270508 1410.505127,901.673157 1389.619995,901.893738 
	C1380.985718,901.984924 1372.349609,901.908752 1362.474731,901.908752 
	C1361.477905,892.554626 1362.085938,883.359436 1361.980469,874.219604 
	C1361.877319,865.280090 1361.958008,856.338440 1361.958008,846.049072 
	C1375.934448,846.462097 1389.448486,844.518616 1402.744873,847.857056 
	C1413.783203,850.628601 1418.823608,858.792725 1420.104370,870.528442 
z"/>
<path fill="#FAFAFA" opacity="1.000000" stroke="none" 
	d="
M720.753479,904.069763 
	C706.719788,904.207886 693.546997,904.207886 679.847839,904.207886 
	C679.847839,883.957214 679.847839,863.509583 679.847839,842.517212 
	C693.940552,842.517212 707.861511,841.447937 721.536438,842.823853 
	C734.704407,844.148743 742.963745,854.541870 745.236450,868.764160 
	C747.304810,881.707520 741.138672,894.846558 729.962646,900.814148 
	C727.365540,902.200989 724.406799,902.910461 720.753479,904.069763 
z"/>
<path fill="#FAFAFA" opacity="1.000000" stroke="none" 
	d="
M882.911987,943.264648 
	C853.318054,961.798523 810.466736,946.676941 806.352295,900.759338 
	C805.259705,888.566162 808.082336,877.027222 814.052490,866.260620 
	C823.479004,849.260803 838.315125,840.778809 857.271301,840.777832 
	C876.099060,840.776855 890.412170,850.231445 899.248230,866.649902 
	C912.840698,891.906677 906.697083,927.355957 882.911987,943.264648 
z"/>
<path fill="#FAFAFA" opacity="1.000000" stroke="none" 
	d="
M1630.567505,901.926636 
	C1628.443237,900.646057 1626.260620,899.391235 1626.243286,898.107239 
	C1626.014771,881.164490 1626.091064,864.217651 1626.091064,846.002625 
	C1638.910645,846.050354 1651.153198,845.047058 1663.249023,847.024048 
	C1678.185669,849.465210 1685.677124,860.504883 1684.526489,876.956787 
	C1683.516113,891.404297 1674.060181,901.041260 1659.510010,901.756958 
	C1650.198120,902.214905 1640.848511,901.904663 1630.567505,901.926636 
z"/>
<path fill="#F6F8F6" opacity="1.000000" stroke="none" 
	d="
M977.160278,847.026978 
	C989.057068,846.346069 1000.376465,845.649170 1011.568420,846.544922 
	C1029.795044,848.003601 1034.938110,861.341736 1035.015747,874.526733 
	C1035.102539,889.271606 1025.394897,900.555359 1011.178650,901.590942 
	C1000.028381,902.403198 988.771667,901.753845 976.525635,901.753845 
	C976.525635,883.323608 976.525635,865.524963 977.160278,847.026978 
z"/>
<path fill="#1F3653" opacity="1.000000" stroke="none" 
	d="
M1239.764893,907.620850 
	C1234.824219,909.014221 1235.484985,913.092163 1236.176392,915.967834 
	C1237.844849,922.906311 1237.474609,929.643555 1236.020508,936.464355 
	C1235.952637,936.783142 1236.010010,937.128357 1236.006836,937.461243 
	C1235.916138,946.794556 1236.871460,947.924927 1246.091675,947.975525 
	C1263.735718,948.072327 1281.380859,947.978394 1299.025146,948.028442 
	C1302.261108,948.037598 1305.496216,948.354187 1309.340942,948.561768 
	C1309.340942,954.394531 1309.340942,959.504211 1309.340942,965.307129 
	C1279.032227,965.307129 1249.277954,965.307129 1219.629028,965.307129 
	C1217.660156,957.719727 1217.168335,839.310852 1218.950439,827.679443 
	C1225.839355,825.650879 1292.528442,825.003052 1307.373047,826.989197 
	C1307.570068,831.218018 1307.777466,835.670288 1308.038452,841.275696 
	C1304.171387,841.550659 1300.998779,841.958557 1297.824585,841.971313 
	C1281.511963,842.036865 1265.198608,841.951111 1248.886108,842.017822 
	C1238.048462,842.062073 1236.113281,844.025513 1236.013184,854.801208 
	C1235.948364,861.791870 1235.919067,868.784790 1236.022827,875.774536 
	C1236.143555,883.907898 1237.752075,885.778076 1245.943481,885.927551 
	C1259.255737,886.170471 1272.575562,885.997559 1285.892212,885.999817 
	C1290.131714,886.000549 1294.371338,886.000000 1299.284302,886.000000 
	C1299.284302,891.632446 1299.284302,896.080139 1299.284302,901.286804 
	C1296.051147,901.541931 1293.165894,901.952148 1290.278809,901.966309 
	C1276.296753,902.035095 1262.313232,901.920410 1248.332153,902.058655 
	C1245.305054,902.088562 1241.340576,900.534485 1239.856201,906.045410 
	C1239.658325,906.775940 1239.928589,907.349426 1239.764893,907.620850 
z"/>
<path fill="#1F3653" opacity="1.000000" stroke="none" 
	d="
M1970.044434,939.244141 
	C1961.154053,947.255554 1953.537720,956.089172 1942.351685,961.348755 
	C1919.364380,967.232727 1896.400879,965.902466 1873.523071,965.988770 
	C1870.250610,966.001160 1866.978271,965.990479 1862.641846,965.990479 
	C1862.396362,961.631714 1862.033569,958.113342 1862.026367,954.594360 
	C1861.976440,929.949829 1862.134766,905.303955 1861.916626,880.661255 
	C1861.852417,873.411987 1860.756470,866.173950 1860.202026,858.925537 
	C1860.024658,856.606018 1859.822632,854.244690 1860.055664,851.945374 
	C1860.884033,843.766357 1861.895020,835.605713 1862.895020,826.935425 
	C1864.918335,826.615906 1866.811035,826.064880 1868.705811,826.057129 
	C1886.023438,825.986511 1903.419556,824.970581 1920.640015,826.263489 
	C1943.450439,827.976013 1961.328857,838.561584 1972.840942,859.349304 
	C1980.296753,872.812622 1980.229126,886.907959 1980.352539,901.551025 
	C1980.467163,915.135376 1975.782959,926.826782 1970.044434,939.244141 
M1938.869507,853.863831 
	C1921.334229,842.260681 1901.915771,846.928223 1882.747070,846.296997 
	C1882.747070,879.493652 1882.747070,911.589661 1882.747070,944.223511 
	C1895.483765,944.223511 1907.748169,944.906494 1919.904175,944.049805 
	C1934.945679,942.989868 1945.784424,934.645325 1953.100098,921.587219 
	C1962.582153,904.662354 1962.066772,869.636597 1938.869507,853.863831 
z"/>
<path fill="#879992" opacity="1.000000" stroke="none" 
	d="
M1399.995361,567.923706 
	C1418.845215,567.923706 1437.695190,567.923706 1457.814087,567.923706 
	C1457.814087,572.768799 1457.810181,576.647461 1457.814819,580.526123 
	C1457.829956,593.159546 1458.017090,605.795837 1457.806763,618.425476 
	C1457.663452,627.026978 1456.307129,628.298889 1447.895142,628.489319 
	C1439.255859,628.684875 1430.608887,628.548767 1420.670166,627.863281 
	C1416.494141,625.443298 1412.134644,625.386353 1412.605591,620.013428 
	C1414.511475,613.108459 1414.541016,606.849976 1412.926880,599.593140 
	C1410.135254,600.815796 1408.209106,601.659485 1405.876465,601.910767 
	C1404.155884,600.812439 1402.841675,600.306396 1401.891235,599.193298 
	C1405.106567,596.021301 1407.958130,593.456299 1410.857544,590.848328 
	C1414.165649,593.039612 1416.618286,594.670776 1419.077759,596.291687 
	C1423.115356,598.952637 1426.954590,599.083191 1430.879272,595.844727 
	C1435.383179,592.128357 1440.258423,588.847717 1444.609741,584.970764 
	C1445.745239,583.959045 1445.898315,581.411072 1445.785034,579.614014 
	C1445.727783,578.707397 1443.843506,577.046570 1443.171997,577.220337 
	C1441.520630,577.647644 1440.030518,578.857971 1438.616821,579.938232 
	C1438.226929,580.236145 1438.563232,581.417847 1438.176880,581.797546 
	C1434.017822,585.884827 1430.319214,591.016235 1425.320435,593.411804 
	C1423.080811,594.485107 1417.970947,590.352295 1414.573730,587.991821 
	C1411.576660,585.909302 1409.163086,586.145020 1405.748047,588.080444 
	C1399.211304,588.387817 1397.916138,583.766296 1396.054932,579.228821 
	C1396.160522,577.695618 1396.166748,576.815613 1396.683594,575.537231 
	C1398.127930,572.733765 1399.061646,570.328735 1399.995361,567.923706 
M1443.365356,594.052795 
	C1441.854126,595.108643 1439.114380,596.078552 1439.033447,597.234497 
	C1438.554688,604.074036 1438.466675,610.970703 1438.890625,617.808289 
	C1438.948120,618.737000 1442.609863,619.442261 1446.485840,621.015015 
	C1445.912598,610.757202 1445.461304,602.684082 1443.365356,594.052795 
M1422.396606,616.492310 
	C1423.228760,620.783630 1426.344849,621.293274 1428.513184,618.622620 
	C1430.037109,616.745728 1429.840942,613.005493 1429.478394,610.218811 
	C1429.212402,608.174316 1427.431030,606.326965 1426.324951,604.391785 
	C1425.439331,604.578918 1424.553589,604.766113 1423.667847,604.953247 
	C1423.221558,608.259521 1422.775269,611.565796 1422.396606,616.492310 
z"/>
<path fill="#778A96" opacity="1.000000" stroke="none" 
	d="
M1395.955444,579.882080 
	C1397.916138,583.766296 1399.211304,588.387817 1405.424683,588.701050 
	C1403.019043,592.115784 1400.460815,595.267944 1397.262817,597.506104 
	C1394.240601,599.621155 1390.180054,600.502502 1390.904907,607.005920 
	C1395.118530,604.147705 1398.322998,601.974060 1401.527466,599.800354 
	C1402.841675,600.306396 1404.155884,600.812439 1405.852783,602.760254 
	C1406.218750,607.739563 1406.400391,611.291870 1406.135620,614.810669 
	C1405.803833,619.218262 1408.388306,620.320312 1411.964600,620.601929 
	C1412.134644,625.386353 1416.494141,625.443298 1419.749146,627.729004 
	C1402.843872,628.400940 1385.562866,628.420593 1368.285767,628.688599 
	C1363.898071,628.756653 1360.705078,627.194031 1360.643433,622.857849 
	C1360.385498,604.697510 1360.534546,586.531372 1360.534546,567.697266 
	C1373.690674,567.697266 1385.912354,567.697266 1399.064697,567.810486 
	C1399.061646,570.328735 1398.127930,572.733765 1395.745850,575.428772 
	C1386.477783,576.216553 1378.401489,574.162415 1370.849487,577.928650 
	C1379.094482,581.058472 1387.606323,579.348389 1395.955444,579.882080 
M1369.505615,586.506226 
	C1380.568237,588.864075 1387.312012,588.396240 1392.279663,583.438599 
	C1384.681030,583.937378 1377.082275,584.436157 1369.505615,586.506226 
M1378.728394,595.475220 
	C1381.013672,595.061462 1383.298828,594.647705 1385.584106,594.234009 
	C1385.499878,593.345581 1385.415649,592.457214 1385.331543,591.568787 
	C1380.258057,590.381775 1375.182983,589.006226 1368.022583,593.751404 
	C1372.333740,594.558472 1374.713867,595.004089 1378.728394,595.475220 
M1391.955688,619.469299 
	C1394.771484,620.156128 1397.552856,620.344543 1397.325195,616.358582 
	C1397.259766,615.214966 1395.421143,613.307190 1394.313965,613.246887 
	C1390.640137,613.046631 1390.084473,615.505493 1391.955688,619.469299 
z"/>
<path fill="#879992" opacity="1.000000" stroke="none" 
	d="
M1450.744507,544.371582 
	C1458.882080,549.057739 1459.015991,549.499695 1456.471191,561.504272 
	C1424.876099,561.504272 1393.146362,561.504272 1360.876221,561.504272 
	C1360.598999,559.587402 1360.199463,558.023254 1360.173706,556.452942 
	C1360.000244,545.885315 1361.532593,544.214478 1372.067505,544.200684 
	C1397.998657,544.166687 1423.930176,544.252747 1450.744507,544.371582 
M1371.336304,550.853638 
	C1370.694458,552.259094 1370.052734,553.664551 1369.410889,555.070007 
	C1370.268066,555.287781 1371.125122,555.505554 1371.982300,555.723328 
	C1372.179443,554.206665 1372.376709,552.690063 1371.336304,550.853638 
M1378.352661,551.984924 
	C1379.192505,553.310669 1380.032349,554.636414 1380.872192,555.962097 
	C1381.731567,555.186707 1382.591064,554.411316 1383.450439,553.635986 
	C1382.057861,552.741028 1380.665161,551.846008 1378.352661,551.984924 
M1393.274536,553.165100 
	C1391.871704,552.965637 1390.468750,552.766174 1389.065918,552.566772 
	C1389.062378,553.404358 1389.058838,554.242004 1389.055298,555.079590 
	C1390.442749,554.906128 1391.830322,554.732727 1393.274536,553.165100 
z"/>
<path fill="#879992" opacity="1.000000" stroke="none" 
	d="
M1339.902832,606.048584 
	C1341.501709,606.286011 1343.100708,606.523499 1345.761230,606.918579 
	C1345.761230,612.776550 1345.827759,618.651794 1345.734741,624.524536 
	C1345.683716,627.741638 1343.702881,629.343506 1340.631592,629.363098 
	C1331.370972,629.422363 1322.107544,629.472290 1312.849609,629.295471 
	C1308.950195,629.220947 1306.779053,626.791565 1306.714722,622.902954 
	C1306.566772,613.972778 1306.368652,605.032654 1306.691162,596.114624 
	C1306.755005,594.350586 1309.044189,591.199524 1310.337646,591.183655 
	C1319.330688,591.073364 1328.516968,588.685974 1337.642578,593.321655 
	C1337.998413,593.995239 1338.052246,593.940735 1337.453857,593.982422 
	C1336.552856,594.698242 1336.250244,595.372314 1335.971924,596.023132 
	C1335.996338,595.999878 1336.040283,595.948853 1335.205933,595.926758 
	C1327.687256,596.809082 1321.003052,597.713501 1314.002197,598.660645 
	C1314.002197,606.630981 1314.002197,614.085083 1314.002197,622.614624 
	C1322.536743,622.614624 1330.517456,622.614624 1339.505737,622.614624 
	C1339.689575,616.882874 1339.865479,611.401184 1340.010498,605.955811 
	C1339.979736,605.992126 1339.902832,606.048584 1339.902832,606.048584 
z"/>
<path fill="#879992" opacity="1.000000" stroke="none" 
	d="
M1341.956665,556.072388 
	C1343.057129,556.661621 1344.377075,557.046021 1345.183105,557.909973 
	C1345.750488,558.518127 1345.760254,559.775513 1345.778564,560.747559 
	C1346.188477,582.399658 1346.711914,579.293457 1329.248535,579.399414 
	C1323.941650,579.431641 1318.630981,579.413940 1313.327515,579.245728 
	C1309.598267,579.127502 1306.761597,577.476685 1306.710693,573.357483 
	C1306.580933,562.856506 1306.667480,552.352783 1306.667480,540.688782 
	C1316.549561,540.688782 1325.045898,540.589783 1333.531128,540.849854 
	C1334.334229,540.874390 1335.068359,543.151917 1335.914551,545.190796 
	C1335.994507,545.998169 1336.043579,545.945740 1335.115479,545.926636 
	C1327.667847,546.225769 1321.148193,546.544006 1314.233887,546.881409 
	C1314.233887,555.614929 1314.233887,563.638733 1314.233887,572.694763 
	C1319.578247,572.694763 1324.141235,572.716370 1328.703979,572.690247 
	C1338.114136,572.636353 1338.058228,572.614746 1339.869995,563.523621 
	C1340.381470,560.956055 1341.323486,558.474304 1342.037354,555.980225 
	C1342.006592,556.007385 1341.956665,556.072388 1341.956665,556.072388 
z"/>
<path fill="#879992" opacity="1.000000" stroke="none" 
	d="
M1448.910522,656.549805 
	C1452.616577,656.766968 1456.004395,655.849670 1457.217407,660.971069 
	C1455.369141,661.718018 1453.458252,663.155273 1451.539917,663.165588 
	C1423.252319,663.317139 1394.963867,663.280701 1366.675537,663.278442 
	C1365.680176,663.278381 1364.505859,663.484436 1363.730103,663.041931 
	C1362.458862,662.316833 1361.446777,661.137512 1360.325317,660.149780 
	C1361.607788,658.945679 1362.704468,657.194885 1364.220947,656.679565 
	C1366.011597,656.071167 1368.165161,656.527466 1370.161377,656.528015 
	C1396.120239,656.534729 1422.079224,656.542542 1448.910522,656.549805 
z"/>
<path fill="#879992" opacity="1.000000" stroke="none" 
	d="
M1386.050781,644.109802 
	C1409.907104,644.431946 1432.774292,644.741394 1455.639282,645.176514 
	C1456.197266,645.187134 1456.728394,646.594666 1457.709717,647.959351 
	C1456.096436,648.797363 1454.782593,650.073120 1453.464600,650.077576 
	C1423.569458,650.178223 1393.673828,650.148315 1363.778442,650.087524 
	C1362.852539,650.085632 1361.927979,649.493835 1360.994873,649.174316 
	C1359.951782,645.381042 1362.163330,644.259399 1365.131348,644.195679 
	C1371.772217,644.052979 1378.417847,644.127075 1386.050781,644.109802 
z"/>
<path fill="#879992" opacity="1.000000" stroke="none" 
	d="
M1312.142944,655.958313 
	C1311.180420,655.959717 1310.218018,655.961182 1308.532471,655.960449 
	C1307.809570,651.691284 1307.809570,647.424377 1307.809570,642.362366 
	C1320.171753,642.362366 1332.215332,642.362366 1345.767822,642.362366 
	C1345.767822,653.231934 1345.844727,664.010315 1345.726318,674.786560 
	C1345.684570,678.587463 1342.988892,679.743286 1339.644897,679.768372 
	C1333.692749,679.813049 1327.740234,679.815125 1320.877563,679.667358 
	C1319.987305,678.107971 1320.007568,676.716309 1320.928711,674.496033 
	C1327.640015,673.447632 1333.450439,673.227966 1339.249512,673.008667 
	C1339.249512,663.738220 1339.249512,655.629639 1339.249512,647.077393 
	C1330.190552,646.277832 1321.816162,646.166443 1313.258057,647.229431 
	C1312.803589,650.786926 1312.473267,653.372620 1312.142944,655.958313 
z"/>
<path fill="#879992" opacity="1.000000" stroke="none" 
	d="
M1391.991333,669.706543 
	C1402.196777,669.705200 1411.407104,669.705200 1420.438110,669.705200 
	C1421.327026,675.613770 1418.187744,675.807251 1415.104614,675.830505 
	C1403.476562,675.918213 1391.847778,675.941833 1380.219360,675.962524 
	C1374.903809,675.971985 1369.567017,676.173828 1364.285645,675.736633 
	C1362.725708,675.607544 1361.321777,673.594177 1360.239380,671.190979 
	C1370.720947,669.222229 1380.884399,669.943420 1391.991333,669.706543 
z"/>
<path fill="#879992" opacity="1.000000" stroke="none" 
	d="
M1337.968506,594.019409 
	C1341.686157,591.893738 1345.433472,589.743896 1349.152588,587.610352 
	C1352.491211,589.287170 1352.292480,591.517822 1350.208496,593.903503 
	C1346.998291,597.578308 1343.691284,601.168579 1340.164062,605.421631 
	C1339.902832,606.048584 1339.979736,605.992126 1339.377319,606.217041 
	C1334.668579,610.609436 1330.562256,614.776917 1326.234863,619.168762 
	C1321.090942,615.010071 1315.822632,612.181030 1317.142456,604.147217 
	C1320.786377,605.736938 1323.686890,607.002319 1327.790161,608.792419 
	C1330.623535,604.381653 1333.331909,600.165222 1336.040283,595.948853 
	C1336.040283,595.948853 1335.996338,595.999878 1336.619141,596.090759 
	C1337.512085,595.434692 1337.782104,594.687683 1338.052246,593.940735 
	C1338.052246,593.940735 1337.998413,593.995239 1337.968506,594.019409 
z"/>
<path fill="#879992" opacity="1.000000" stroke="none" 
	d="
M1335.966064,546.019897 
	C1339.018555,543.941895 1342.204224,541.976990 1345.146484,539.697876 
	C1347.358276,537.984436 1349.283081,536.349976 1352.375488,540.172668 
	C1348.857666,544.906921 1345.238281,549.777832 1341.787720,555.360596 
	C1341.956665,556.072388 1342.006592,556.007385 1341.338745,555.789795 
	C1335.809448,560.299194 1330.947998,565.026062 1325.536499,570.287842 
	C1321.756470,565.715210 1317.296997,562.471924 1316.499878,555.346802 
	C1320.639160,556.516174 1323.589966,557.349731 1327.646484,558.495728 
	C1330.473389,554.270691 1333.258545,550.108215 1336.043579,545.945740 
	C1336.043579,545.945740 1335.994507,545.998169 1335.966064,546.019897 
z"/>
<path fill="#F6F8F6" opacity="1.000000" stroke="none" 
	d="
M1312.253418,656.845581 
	C1312.473267,653.372620 1312.803589,650.786926 1313.258057,647.229431 
	C1321.816162,646.166443 1330.190552,646.277832 1339.249512,647.077393 
	C1339.249512,655.629639 1339.249512,663.738220 1339.249512,673.008667 
	C1333.450439,673.227966 1327.640015,673.447632 1320.930298,673.799194 
	C1317.833130,673.552063 1315.635132,673.173096 1312.363770,672.609070 
	C1312.363770,667.471985 1312.363770,662.602417 1312.253418,656.845581 
z"/>
<path fill="#FAFAFA" opacity="1.000000" stroke="none" 
	d="
M1939.484863,854.268311 
	C1962.066772,869.636597 1962.582153,904.662354 1953.100098,921.587219 
	C1945.784424,934.645325 1934.945679,942.989868 1919.904175,944.049805 
	C1907.748169,944.906494 1895.483765,944.223511 1882.747070,944.223511 
	C1882.747070,911.589661 1882.747070,879.493652 1882.747070,846.296997 
	C1901.915771,846.928223 1921.334229,842.260681 1939.484863,854.268311 
z"/>
<path fill="#E2E8E5" opacity="1.000000" stroke="none" 
	d="
M1401.891235,599.193298 
	C1398.322998,601.974060 1395.118530,604.147705 1390.904907,607.005920 
	C1390.180054,600.502502 1394.240601,599.621155 1397.262817,597.506104 
	C1400.460815,595.267944 1403.019043,592.115784 1406.180176,588.742249 
	C1409.163086,586.145020 1411.576660,585.909302 1414.573730,587.991821 
	C1417.970947,590.352295 1423.080811,594.485107 1425.320435,593.411804 
	C1430.319214,591.016235 1434.017822,585.884827 1438.176880,581.797546 
	C1438.563232,581.417847 1438.226929,580.236145 1438.616821,579.938232 
	C1440.030518,578.857971 1441.520630,577.647644 1443.171997,577.220337 
	C1443.843506,577.046570 1445.727783,578.707397 1445.785034,579.614014 
	C1445.898315,581.411072 1445.745239,583.959045 1444.609741,584.970764 
	C1440.258423,588.847717 1435.383179,592.128357 1430.879272,595.844727 
	C1426.954590,599.083191 1423.115356,598.952637 1419.077759,596.291687 
	C1416.618286,594.670776 1414.165649,593.039612 1410.857544,590.848328 
	C1407.958130,593.456299 1405.106567,596.021301 1401.891235,599.193298 
z"/>
<path fill="#E2E8E5" opacity="1.000000" stroke="none" 
	d="
M1444.187744,594.331909 
	C1445.461304,602.684082 1445.912598,610.757202 1446.485840,621.015015 
	C1442.609863,619.442261 1438.948120,618.737000 1438.890625,617.808289 
	C1438.466675,610.970703 1438.554688,604.074036 1439.033447,597.234497 
	C1439.114380,596.078552 1441.854126,595.108643 1444.187744,594.331909 
z"/>
<path fill="#E2E8E5" opacity="1.000000" stroke="none" 
	d="
M1412.605591,620.013428 
	C1408.388306,620.320312 1405.803833,619.218262 1406.135620,614.810669 
	C1406.400391,611.291870 1406.218750,607.739563 1406.259033,603.352600 
	C1408.209106,601.659485 1410.135254,600.815796 1412.926880,599.593140 
	C1414.541016,606.849976 1414.511475,613.108459 1412.605591,620.013428 
z"/>
<path fill="#E2E8E5" opacity="1.000000" stroke="none" 
	d="
M1422.362793,615.682190 
	C1422.775269,611.565796 1423.221558,608.259521 1423.667847,604.953247 
	C1424.553589,604.766113 1425.439331,604.578918 1426.324951,604.391785 
	C1427.431030,606.326965 1429.212402,608.174316 1429.478394,610.218811 
	C1429.840942,613.005493 1430.037109,616.745728 1428.513184,618.622620 
	C1426.344849,621.293274 1423.228760,620.783630 1422.362793,615.682190 
z"/>
<path fill="#E2E8E5" opacity="1.000000" stroke="none" 
	d="
M1396.054932,579.228821 
	C1387.606323,579.348389 1379.094482,581.058472 1370.849487,577.928650 
	C1378.401489,574.162415 1386.477783,576.216553 1395.235352,575.827271 
	C1396.166748,576.815613 1396.160522,577.695618 1396.054932,579.228821 
z"/>
<path fill="#E2E8E5" opacity="1.000000" stroke="none" 
	d="
M1369.494629,585.720581 
	C1377.082275,584.436157 1384.681030,583.937378 1392.279663,583.438599 
	C1387.312012,588.396240 1380.568237,588.864075 1369.494629,585.720581 
z"/>
<path fill="#E2E8E5" opacity="1.000000" stroke="none" 
	d="
M1377.911255,595.462402 
	C1374.713867,595.004089 1372.333740,594.558472 1368.022583,593.751404 
	C1375.182983,589.006226 1380.258057,590.381775 1385.331543,591.568787 
	C1385.415649,592.457214 1385.499878,593.345581 1385.584106,594.234009 
	C1383.298828,594.647705 1381.013672,595.061462 1377.911255,595.462402 
z"/>
<path fill="#E2E8E5" opacity="1.000000" stroke="none" 
	d="
M1391.427368,619.010803 
	C1390.084473,615.505493 1390.640137,613.046631 1394.313965,613.246887 
	C1395.421143,613.307190 1397.259766,615.214966 1397.325195,616.358582 
	C1397.552856,620.344543 1394.771484,620.156128 1391.427368,619.010803 
z"/>
<path fill="#E2E8E5" opacity="1.000000" stroke="none" 
	d="
M1371.955078,551.013550 
	C1372.376709,552.690063 1372.179443,554.206665 1371.982300,555.723328 
	C1371.125122,555.505554 1370.268066,555.287781 1369.410889,555.070007 
	C1370.052734,553.664551 1370.694458,552.259094 1371.955078,551.013550 
z"/>
<path fill="#E2E8E5" opacity="1.000000" stroke="none" 
	d="
M1378.812622,551.468018 
	C1380.665161,551.846008 1382.057861,552.741028 1383.450439,553.635986 
	C1382.591064,554.411316 1381.731567,555.186707 1380.872192,555.962158 
	C1380.032349,554.636414 1379.192505,553.310669 1378.812622,551.468018 
z"/>
<path fill="#E2E8E5" opacity="1.000000" stroke="none" 
	d="
M1393.246094,553.862183 
	C1391.830322,554.732727 1390.442749,554.906128 1389.055298,555.079590 
	C1389.058838,554.242004 1389.062378,553.404358 1389.065918,552.566772 
	C1390.468750,552.766174 1391.871704,552.965637 1393.246094,553.862183 
z"/>
<path fill="#F6F8F6" opacity="1.000000" stroke="none" 
	d="
M1335.205933,595.926758 
	C1333.331909,600.165222 1330.623535,604.381653 1327.790161,608.792419 
	C1323.686890,607.002319 1320.786377,605.736938 1317.142456,604.147217 
	C1315.822632,612.181030 1321.090942,615.010071 1326.234863,619.168762 
	C1330.562256,614.776917 1334.668579,610.609436 1339.408203,606.180725 
	C1339.865479,611.401184 1339.689575,616.882874 1339.505737,622.614624 
	C1330.517456,622.614624 1322.536743,622.614624 1314.002197,622.614624 
	C1314.002197,614.085083 1314.002197,606.630981 1314.002197,598.660645 
	C1321.003052,597.713501 1327.687256,596.809082 1335.205933,595.926758 
z"/>
<path fill="#F6F8F6" opacity="1.000000" stroke="none" 
	d="
M1337.453857,593.982422 
	C1337.782104,594.687683 1337.512085,595.434692 1336.594727,596.114014 
	C1336.250244,595.372314 1336.552856,594.698242 1337.453857,593.982422 
z"/>
<path fill="#F6F8F6" opacity="1.000000" stroke="none" 
	d="
M1335.115479,545.926636 
	C1333.258545,550.108215 1330.473389,554.270691 1327.646484,558.495728 
	C1323.589966,557.349731 1320.639160,556.516174 1316.499878,555.346802 
	C1317.296997,562.471924 1321.756470,565.715210 1325.536499,570.287842 
	C1330.947998,565.026062 1335.809448,560.299194 1341.369507,555.762695 
	C1341.323486,558.474304 1340.381470,560.956055 1339.869995,563.523621 
	C1338.058228,572.614746 1338.114136,572.636353 1328.703979,572.690247 
	C1324.141235,572.716370 1319.578247,572.694763 1314.233887,572.694763 
	C1314.233887,563.638733 1314.233887,555.614929 1314.233887,546.881409 
	C1321.148193,546.544006 1327.667847,546.225769 1335.115479,545.926636 
z"/>
</svg>