<svg xmlns="http://www.w3.org/2000/svg" viewBox="0 0 240 40" width="240" height="40">
  <!-- Shield icon -->
  <g transform="translate(2, 2)">
    <path d="M18 0L4 5.5v9c0 8.4 5.7 16.3 14 18 8.3-1.7 14-9.6 14-18v-9L18 0z" fill="#8FA3B5" opacity="0.2"/>
    <path d="M18 1.5L5.5 6.5v8c0 7.8 5.3 15 12.5 16.8 7.2-1.8 12.5-9 12.5-16.8v-8L18 1.5z" fill="none" stroke="#1B3A5C" stroke-width="1.8"/>
    <path d="M22 9.5L18 7l-4 2.5v6a6 6 0 0 0 4 5.6A6 6 0 0 0 22 15.5V9.5z" fill="none" stroke="#7A8B6F" stroke-width="1.3"/>
    <path d="M16 13h4M16 15.2h3" stroke="#1B3A5C" stroke-width="0.9" stroke-linecap="round"/>
    <rect x="13.5" y="11" width="1.8" height="1.8" rx="0.3" fill="#7A8B6F"/>
    <rect x="13.5" y="13.8" width="1.8" height="1.8" rx="0.3" fill="#7A8B6F"/>
  </g>
  <!-- MICRO text -->
  <text x="44" y="27" font-family="'Lexend Deca', 'Segoe UI', Arial, sans-serif" font-size="22" font-weight="700" letter-spacing="-0.02em" fill="#4A4A4A">MICRO</text>
  <!-- PREPARED text -->
  <text x="118" y="27" font-family="'Lexend Deca', 'Segoe UI', Arial, sans-serif" font-size="22" font-weight="700" letter-spacing="-0.02em" fill="#1B3A5C">PREPARED</text>
</svg>
